<svg xmlns="http://www.w3.org/2000/svg" width="24" height="24" viewBox="0 0 24 24">
    <defs>
        <style>
            .cls-1{fill:#1f3b64}
        </style>
    </defs>
    <g id="Group_1261" transform="translate(-180 -776.999)">
        <g id="price-tag" transform="translate(180 776.999)">
            <path id="Path_1553" d="M175.692 124l3.315-9.944a.7.7 0 0 0-1.334-.445l-3.315 9.944a.7.7 0 1 0 1.334.445z" class="cls-1" transform="translate(-166.15 -107.828)"/>
            <path id="Path_1554" d="M266.642 193.422a2.109 2.109 0 1 0-2.109-2.109 2.112 2.112 0 0 0 2.109 2.109zm0-2.813a.7.7 0 1 1-.7.7.7.7 0 0 1 .7-.7z" class="cls-1" transform="translate(-252.133 -180.334)"/>
            <path id="Path_1555" d="M96.936 189.2a2.109 2.109 0 1 0 2.109 2.109 2.112 2.112 0 0 0-2.109-2.109zm0 2.813a.7.7 0 1 1 .7-.7.7.7 0 0 1-.7.703z" class="cls-1" transform="translate(-90.382 -180.334)"/>
            <path id="Path_1556" d="M23.86 8.719L21.408 5.45l.1-.67a.7.7 0 0 0-.2-.6l-1.495-1.488L21.3 1.2a.7.7 0 0 0-.99-.994L18.819 1.7 17.327.206a.7.7 0 0 0-.6-.2L9.77 1a.7.7 0 0 0-.4.2L.754 9.818a2.581 2.581 0 0 0 0 3.646l7.292 7.292a2.572 2.572 0 0 0 .485.381v.285A2.581 2.581 0 0 0 11.11 24h10.312A2.581 2.581 0 0 0 24 21.422V9.141a.7.7 0 0 0-.141-.422zM1.748 12.47a1.173 1.173 0 0 1 0-1.657L10.2 2.361l6.381-.911 1.243 1.243-.994.994-.5-.5a.7.7 0 1 0-.994.994l1.989 1.989a.7.7 0 0 0 .994-.994l-.5-.5.994-.994 1.249 1.248-.912 6.38-8.45 8.452a1.172 1.172 0 0 1-1.657 0zm20.846 8.952a1.173 1.173 0 0 1-1.172 1.172H11.11a1.173 1.173 0 0 1-1.168-1.085 2.568 2.568 0 0 0 1.751-.752l8.618-8.618a.7.7 0 0 0 .2-.4l.617-4.322 1.468 1.957z" class="cls-1"/>
        </g>
    </g>
</svg>
