<svg xmlns="http://www.w3.org/2000/svg" width="24" height="24" viewBox="0 0 24 24">
    <defs>
        <clipPath id="clip-path">
            <path id="Rectangle_204" fill="#1f3b64" stroke="#707070" d="M0 0H24V24H0z" data-name="Rectangle 204" transform="translate(25 410)"/>
        </clipPath>
    </defs>
    <g id="Mask_Group_22" clip-path="url(#clip-path)" data-name="Mask Group 22" transform="translate(-25 -410)">
        <g id="help" transform="translate(25 410)">
            <g id="Group_184" data-name="Group 184">
                <path id="Path_173" fill="#1f3b64" d="M20.485 3.515a12 12 0 0 0-16.97 16.97 12 12 0 0 0 16.97-16.97zM12 1.406a10.549 10.549 0 0 1 6.973 2.626L15.7 7.3a5.969 5.969 0 0 0-7.4 0L5.027 4.032A10.549 10.549 0 0 1 12 1.406zM16.575 12A4.575 4.575 0 1 1 12 7.425 4.58 4.58 0 0 1 16.575 12zM1.406 12a10.549 10.549 0 0 1 2.626-6.974L7.3 8.3a5.969 5.969 0 0 0 0 7.4l-3.268 3.273A10.549 10.549 0 0 1 1.406 12zM12 22.594a10.549 10.549 0 0 1-6.974-2.626L8.3 16.7a5.969 5.969 0 0 0 7.4 0l3.272 3.272A10.549 10.549 0 0 1 12 22.594zm7.968-3.62L16.7 15.7a5.969 5.969 0 0 0 0-7.4l3.272-3.272a10.572 10.572 0 0 1 0 13.947z" data-name="Path 173"/>
            </g>
        </g>
    </g>
</svg>
