<svg xmlns="http://www.w3.org/2000/svg" xmlns:xlink="http://www.w3.org/1999/xlink" width="354.382" height="312.987" viewBox="0 0 354.382 312.987">
  <defs>
    <linearGradient id="linear-gradient" y1="0.489" x2="0.991" y2="0.489" gradientUnits="objectBoundingBox">
      <stop offset="0" stop-color="#ff66a9"/>
      <stop offset="1" stop-color="#f53689"/>
    </linearGradient>
    <linearGradient id="linear-gradient-2" x1="0.018" y1="0.501" x2="0.988" y2="0.501" xlink:href="#linear-gradient"/>
    <filter id="Path" x="100.499" y="11.416" width="253.883" height="294.635" filterUnits="userSpaceOnUse">
      <feOffset dy="11" input="SourceAlpha"/>
      <feGaussianBlur stdDeviation="11" result="blur"/>
      <feFlood flood-color="#657a93" flood-opacity="0.18"/>
      <feComposite operator="in" in2="blur"/>
      <feComposite in="SourceGraphic"/>
    </filter>
    <filter id="Path-2" x="0" y="25.996" width="274.63" height="281.554" filterUnits="userSpaceOnUse">
      <feOffset dy="11" input="SourceAlpha"/>
      <feGaussianBlur stdDeviation="11" result="blur-2"/>
      <feFlood flood-color="#657a93" flood-opacity="0.18"/>
      <feComposite operator="in" in2="blur-2"/>
      <feComposite in="SourceGraphic"/>
    </filter>
    <filter id="Path-3" x="51.765" y="1.281" width="256.747" height="311.706" filterUnits="userSpaceOnUse">
      <feOffset dy="11" input="SourceAlpha"/>
      <feGaussianBlur stdDeviation="11" result="blur-3"/>
      <feFlood flood-color="#657a93" flood-opacity="0.18"/>
      <feComposite operator="in" in2="blur-3"/>
      <feComposite in="SourceGraphic"/>
    </filter>
    <linearGradient id="linear-gradient-3" x1="0.232" y1="0.091" x2="0.789" y2="0.925" gradientUnits="objectBoundingBox">
      <stop offset="0" stop-color="#83a6ff"/>
      <stop offset="1" stop-color="#5a78ff"/>
    </linearGradient>
    <filter id="Path-4" x="107.832" y="87.812" width="150.13" height="168.734" filterUnits="userSpaceOnUse">
      <feOffset dy="5" input="SourceAlpha"/>
      <feGaussianBlur stdDeviation="4" result="blur-4"/>
      <feFlood flood-color="#1d4bff" flood-opacity="0.22"/>
      <feComposite operator="in" in2="blur-4"/>
      <feComposite in="SourceGraphic"/>
    </filter>
    <linearGradient id="linear-gradient-4" x1="0.863" y1="0.77" x2="0.268" y2="0.127" xlink:href="#linear-gradient-3"/>
    <linearGradient id="linear-gradient-5" x1="0.325" y1="0.251" x2="0.613" y2="0.65" gradientUnits="objectBoundingBox">
      <stop offset="0" stop-color="#4f6aff"/>
      <stop offset="1" stop-color="#657eff" stop-opacity="0"/>
    </linearGradient>
    <linearGradient id="linear-gradient-6" x1="0.004" y1="0.503" x2="1.005" y2="0.503" gradientUnits="objectBoundingBox">
      <stop offset="0.011" stop-color="#c2d1ff"/>
      <stop offset="1" stop-color="#fff"/>
    </linearGradient>
    <linearGradient id="linear-gradient-7" x1="0.638" y1="0.596" x2="-0.126" y2="0.045" xlink:href="#linear-gradient-6"/>
  </defs>
  <g id="Group_1" data-name="Group 1" transform="translate(-1277.626 -695)">
    <path id="Path-5" data-name="Path" d="M276.5,96.428V207.817a28.566,28.566,0,0,1-.3,5.023,40.52,40.52,0,0,1-20.217,30.432L159.06,298.817a40.408,40.408,0,0,1-30.326,4.135,42.312,42.312,0,0,1-10.7-4.135L20.813,242.975A41.126,41.126,0,0,1,0,207.52V96.428A40.529,40.529,0,0,1,20.514,60.973L117.735,5.428a41.156,41.156,0,0,1,30.622-4.135,53.14,53.14,0,0,1,10.7,4.135l96.922,55.545A41.278,41.278,0,0,1,276.5,96.428Z" transform="translate(1317.641 695)" fill="#eaeef9"/>
    <g id="_18" data-name="18" transform="translate(1307.5 704.904)">
      <path id="Path-6" data-name="Path" d="M9.5,14.185A7.269,7.269,0,1,0,.358,9.518,7.271,7.271,0,0,0,9.5,14.185Z" transform="translate(0 39.281)" fill="#eaeef9"/>
      <path id="Path-7" data-name="Path" d="M6.462,9.645A4.942,4.942,0,1,0,.243,6.471,4.946,4.946,0,0,0,6.462,9.645Z" transform="translate(18.885 20.103)" fill="#eaeef9"/>
      <path id="Path-8" data-name="Path" d="M18.475,19.207a11.043,11.043,0,1,0-15.588-.7A11.059,11.059,0,0,0,18.475,19.207Z" transform="translate(275.74 38.874)" fill="#eaeef9"/>
      <path id="Path-9" data-name="Path" d="M7.779,8.085a4.649,4.649,0,1,0-6.562-.294A4.657,4.657,0,0,0,7.779,8.085Z" transform="translate(282.128 237.276)" fill="#7a9cff"/>
      <path id="Path-10" data-name="Path" d="M5.806,11.63A5.815,5.815,0,1,0,0,5.814,5.811,5.811,0,0,0,5.806,11.63Z" transform="translate(33.117 246.581)" fill="url(#linear-gradient)"/>
      <path id="Path-11" data-name="Path" d="M4.645,9.3A4.652,4.652,0,1,0,0,4.652,4.647,4.647,0,0,0,4.645,9.3Z" transform="translate(255.8 0)" fill="url(#linear-gradient-2)"/>
      <g transform="matrix(1, 0, 0, 1, -29.87, -9.9)" filter="url(#Path)">
        <path id="Path-12" data-name="Path" d="M187.883,95.707,139.4,223.358a8.218,8.218,0,0,1-10.742,4.652L5.267,179.451A8.24,8.24,0,0,1,.622,168.693L64.785,5.275A8.222,8.222,0,0,1,75.527.623l89.42,35.186Z" transform="translate(133.5 33.42)" fill="#fff"/>
      </g>
      <path id="Path-13" data-name="Path" d="M75.3,32.963,1.265,3.884C.1,3.6-.185,2.432.1,1.268S1.557-.185,2.718.1L76.751,29.182c1.161.292,1.45,1.455,1.161,2.617A2.525,2.525,0,0,1,75.3,32.963Z" transform="translate(160.467 165.639)" fill="#e3eaf2"/>
      <path id="Path-14" data-name="Path" d="M14.331,9.118,1.266,3.885C.105,3.594-.186,2.433.105,1.269S1.555-.186,2.717.105L15.781,5.338c1.161.292,1.453,1.455,1.161,2.619S15.492,9.41,14.331,9.118Z" transform="translate(138.111 156.624)" fill="#e3eaf2"/>
      <path id="Path-15" data-name="Path" d="M34.365,16.971,1.265,3.885C.1,3.594-.185,2.43.1,1.266S1.557-.186,2.718.105l33.1,13.085c1.161.289,1.453,1.453,1.161,2.617S35.526,17.26,34.365,16.971Z" transform="translate(208.951 161.568)" fill="#e3eaf2"/>
      <path id="Path-16" data-name="Path" d="M49.46,22.787l-48.2-18.9C.1,3.594-.185,2.43.1,1.269S1.557-.186,2.718.105l48.192,18.9c1.161.289,1.453,1.453,1.164,2.617S50.622,23.076,49.46,22.787Z" transform="translate(146.821 137.142)" fill="#e3eaf2"/>
      <path id="Path-17" data-name="Path" d="M14.04,8.828,1.266,3.884C.105,3.593-.186,2.432.105,1.268S1.555-.185,2.719.1L15.492,5.048c1.161.292,1.453,1.453,1.161,2.617S15.2,9.12,14.04,8.828Z" transform="translate(237.693 149.937)" fill="#e3eaf2"/>
      <path id="Path-18" data-name="Path" d="M71.816,31.8,1.266,3.884C.105,3.6-.186,2.432.105,1.268S1.555-.185,2.717.1L73.269,28.021c1.161.289,1.45,1.453,1.161,2.617A1.765,1.765,0,0,1,71.816,31.8Z" transform="translate(155.24 117.079)" fill="#e3eaf2"/>
      <path id="Path-19" data-name="Path" d="M5.62,5.629,1.266,3.884C.105,3.6-.186,2.432.105,1.268S1.555-.185,2.717.1L7.072,1.851C8.234,2.14,8.525,3.3,8.234,4.468A2.147,2.147,0,0,1,5.62,5.629Z" transform="translate(165.402 192.681)" fill="#e3eaf2"/>
      <path id="Path-20" data-name="Path" d="M27.395,14.354,1.265,3.885C.1,3.594-.185,2.433.1,1.269S1.557-.186,2.718.105l26.13,10.469c1.161.289,1.453,1.453,1.161,2.617A2.038,2.038,0,0,1,27.395,14.354Z" transform="translate(131.142 179.014)" fill="#e3eaf2"/>
      <path id="Path-21" data-name="Path" d="M46.847,21.913,1.266,3.884C.105,3.6-.186,2.432.105,1.268S1.555-.185,2.717.1L48.3,18.133c1.161.292,1.453,1.455,1.161,2.617A2.034,2.034,0,0,1,46.847,21.913Z" transform="translate(213.597 117.079)" fill="#e3eaf2"/>
      <path id="Path-22" data-name="Path" d="M36.4,17.843,1.266,3.885C.105,3.594-.186,2.43.105,1.266S1.555-.186,2.717.105l35.13,14.246c1.161.292,1.453,1.455,1.161,2.619S37.558,18.423,36.4,17.843Z" transform="translate(163.66 97.307)" fill="#e3eaf2"/>
      <path id="Path-23" data-name="Path" d="M60.9,28.427,1.673,5.165A2.566,2.566,0,0,1,.223,1.676,2.559,2.559,0,0,1,3.706.224L62.933,23.486A2.671,2.671,0,0,1,60.9,28.427Z" transform="translate(181.833 51.536)" fill="#ced7e2"/>
      <path id="Path-24" data-name="Path" d="M24.321,14.181,1.675,5.165A2.566,2.566,0,0,1,.222,1.676,2.56,2.56,0,0,1,3.706.224L26.352,9.237A2.567,2.567,0,0,1,27.8,12.726,2.65,2.65,0,0,1,24.321,14.181Z" transform="translate(176.316 65.493)" fill="#ced7e2"/>
      <path id="Path-25" data-name="Path" d="M14.3,0,.659,34.894A9.8,9.8,0,0,0,6.176,47.4L37.239,59.612" transform="translate(254.268 59.318)" fill="#e6edf5"/>
      <g transform="matrix(1, 0, 0, 1, -29.87, -9.9)" filter="url(#Path-2)">
        <path id="Path-26" data-name="Path" d="M151.348,26.17l56.615,124.163c1.742,4.361,0,9.3-4.356,11.049l-121.356,53.5c-4.356,1.744-9.292,0-11.034-4.363L.667,50.015c-1.742-4.363,0-9.3,4.356-11.049L92.993,0Z" transform="translate(33 48)" fill="#fff"/>
      </g>
      <path id="Path-27" data-name="Path" d="M75.717,3.723,2.845,36a1.989,1.989,0,0,1-2.611-.872A2,2,0,0,1,1.1,32.51L73.975.235a1.992,1.992,0,0,1,2.614.872A1.916,1.916,0,0,1,75.717,3.723Z" transform="translate(95.885 155.914)" fill="#e3eaf2"/>
      <path id="Path-28" data-name="Path" d="M15.621,3.722,2.848,9.247A1.992,1.992,0,0,1,.234,8.375a2,2,0,0,1,.872-2.617L13.879.234a1.994,1.994,0,0,1,2.614.872C17.074,2.27,16.782,3.433,15.621,3.722Z" transform="translate(74.109 191.971)" fill="#e3eaf2"/>
      <path id="Path-29" data-name="Path" d="M35.364,3.723,2.845,17.972A1.991,1.991,0,0,1,.234,17.1a2,2,0,0,1,.87-2.617L33.62.235a1.992,1.992,0,0,1,2.614.872A1.775,1.775,0,0,1,35.364,3.723Z" transform="translate(127.24 136.432)" fill="#e3eaf2"/>
      <path id="Path-30" data-name="Path" d="M50.17,3.723,2.848,24.661a1.993,1.993,0,0,1-2.614-.875,2,2,0,0,1,.872-2.617L48.429.235a1.992,1.992,0,0,1,2.614.872C51.623,2.271,51.332,3.432,50.17,3.723Z" transform="translate(66.27 156.786)" fill="#e3eaf2"/>
      <path id="Path-31" data-name="Path" d="M15.332,3.722,2.848,9.247A1.992,1.992,0,0,1,.234,8.375a2,2,0,0,1,.872-2.617L13.59.234a1.992,1.992,0,0,1,2.611.872A1.833,1.833,0,0,1,15.332,3.722Z" transform="translate(139.433 116.368)" fill="#e3eaf2"/>
      <path id="Path-32" data-name="Path" d="M72.236,3.723,2.848,34.546a1.994,1.994,0,0,1-2.614-.872,2,2,0,0,1,.872-2.619L70.783.235a1.992,1.992,0,0,1,2.614.872C73.686,2.268,73.4,3.432,72.236,3.723Z" transform="translate(58.141 127.127)" fill="#e3eaf2"/>
      <path id="Path-33" data-name="Path" d="M7.2,3.725,2.848,5.758A1.992,1.992,0,0,1,.234,4.886,2,2,0,0,1,1.1,2.27L5.459.234a1.994,1.994,0,0,1,2.614.872A2,2,0,0,1,7.2,3.725Z" transform="translate(118.82 201.856)" fill="#e3eaf2"/>
      <path id="Path-34" data-name="Path" d="M28.686,3.725,2.848,15.066a1.993,1.993,0,0,1-2.614-.875,2,2,0,0,1,.872-2.617L26.944.234a1.993,1.993,0,0,1,2.614.875A1.776,1.776,0,0,1,28.686,3.725Z" transform="translate(84.851 207.381)" fill="#e3eaf2"/>
      <path id="Path-35" data-name="Path" d="M47.559,3.725,2.848,23.5a1.992,1.992,0,0,1-2.614-.872,2,2,0,0,1,.872-2.617L45.815.234a1.994,1.994,0,0,1,2.614.872A2,2,0,0,1,47.559,3.725Z" transform="translate(99.077 96.595)" fill="#e3eaf2"/>
      <path id="Path-36" data-name="Path" d="M37.395,3.722,2.848,18.843a1.992,1.992,0,0,1-2.614-.872,2,2,0,0,1,.87-2.617L35.653.234a1.994,1.994,0,0,1,2.614.872A1.775,1.775,0,0,1,37.395,3.722Z" transform="translate(50.013 122.765)" fill="#e3eaf2"/>
      <path id="Path-37" data-name="Path" d="M62.063,5.166,3.706,30.753A2.56,2.56,0,0,1,.222,29.3a2.566,2.566,0,0,1,1.453-3.489L59.74.222a2.562,2.562,0,0,1,3.484,1.453A2.7,2.7,0,0,1,62.063,5.166Z" transform="translate(30.281 66.075)" fill="#ced7e2"/>
      <path id="Path-38" data-name="Path" d="M26.061,5.166,3.706,15.052A2.561,2.561,0,0,1,.223,13.6a2.57,2.57,0,0,1,1.45-3.491L24.03.222a2.562,2.562,0,0,1,3.484,1.453A2.659,2.659,0,0,1,26.061,5.166Z" transform="translate(36.378 96.026)" fill="#ced7e2"/>
      <path id="Path-39" data-name="Path" d="M0,0,15.1,34.311a10.058,10.058,0,0,0,12.776,4.944L58.354,25.879" transform="translate(96.119 38.383)" fill="#e6edf5"/>
      <g transform="matrix(1, 0, 0, 1, -29.87, -9.9)" filter="url(#Path-3)">
        <path id="Path-40" data-name="Path" d="M188.713,60.481l2.033,174.467A10.724,10.724,0,0,1,180,245.706H10.742A10.726,10.726,0,0,1,0,234.948V10.758A10.724,10.724,0,0,1,10.742,0H133.551Z" transform="translate(84.77 23.28)" fill="#fff"/>
      </g>
      <path id="Path-41" data-name="Path" d="M8.709,5.236h-6.1A2.6,2.6,0,0,1,0,2.617,2.6,2.6,0,0,1,2.611,0h6.1a2.618,2.618,0,0,1,0,5.236Z" transform="translate(128.635 218.955)" fill="#e3eaf2"/>
      <path id="Path-42" data-name="Path" d="M38.614,5.236h-36A2.618,2.618,0,0,1,2.614,0h36a2.618,2.618,0,0,1,0,5.236Z" transform="translate(81.601 218.955)" fill="#e3eaf2"/>
      <path id="Path-43" data-name="Path" d="M84.775,6.98H3.484A3.534,3.534,0,0,1,0,3.489,3.532,3.532,0,0,1,3.484,0H84.775a3.532,3.532,0,0,1,3.484,3.489A3.742,3.742,0,0,1,84.775,6.98Z" transform="translate(82.474 43.036)" fill="#ced7e2"/>
      <path id="Path-44" data-name="Path" d="M34.547,6.98H3.484A3.534,3.534,0,0,1,0,3.489,3.532,3.532,0,0,1,3.484,0H34.547a3.536,3.536,0,0,1,3.486,3.489A3.744,3.744,0,0,1,34.547,6.98Z" transform="translate(82.474 62.517)" fill="#ced7e2"/>
      <path id="Path-45" data-name="Path" d="M0,0V47.98A12.529,12.529,0,0,0,12.484,60.192H55.162" transform="translate(188.442 13.666)" fill="#e6edf5"/>
      <path id="Shape" d="M8.128,90.724A8.376,8.376,0,0,1,0,82.29V8.434A8.19,8.19,0,0,1,8.128,0H136.162A7.959,7.959,0,0,1,144,8.434V82.29a8.19,8.19,0,0,1-8.128,8.434Z" transform="translate(80.732 106.133)" fill="#e3eaf2"/>
      <g transform="matrix(1, 0, 0, 1, -29.87, -9.9)" filter="url(#Path-4)">
        <path id="Path-46" data-name="Path" d="M118.516,25.3c-2.9,0-9.87-2.617-12.193-3.489C94.128,16.285,74.1,0,63.065,0S32,15.993,19.806,21.809c-2.033.872-9.292,3.489-12.2,3.489A7.943,7.943,0,0,0,.063,34.022,299.179,299.179,0,0,0,11.675,88.688c9.873,30.531,37.164,48.852,47.614,54.957a8.125,8.125,0,0,0,8.128,0c10.453-6.105,37.744-24.426,47.034-54.957a299.245,299.245,0,0,0,11.615-54.665A7.654,7.654,0,0,0,118.516,25.3Z" transform="translate(119.83 94.81)" fill="url(#linear-gradient-3)"/>
      </g>
      <path id="Path-47" data-name="Path" d="M94.646,22.679a244.817,244.817,0,0,1-6.1,31.114,68.256,68.256,0,0,1-2.031,7.269,58.44,58.44,0,0,1-2.033,6.688c-7.259,23.262-27.291,37.8-37.161,43.616h-.581a25.634,25.634,0,0,0-2.9-1.744c-10.453-6.977-27.291-20.646-33.68-41.58-1.45-4.944-2.9-9.6-4.064-14.249A244.71,244.71,0,0,1,0,22.679,53.013,53.013,0,0,0,11.612,18.9a165.525,165.525,0,0,0,14.807-8.433C32.225,6.977,42.386.581,46.451,0h.581c3.775,0,14.518,6.686,20.615,10.466A165.526,165.526,0,0,0,82.453,18.9C84.195,19.482,89.709,21.807,94.646,22.679Z" transform="translate(105.7 101.192)" fill="url(#linear-gradient-4)"/>
      <path id="Path-48" data-name="Path" d="M34.258,10.466,40.645,0,84.775,44.2,59.807,92.465l-14.518,6.4L0,53.793l7.839-6.98L33.677,11.338Z" transform="translate(112.087 101.192)" fill="url(#linear-gradient-5)"/>
      <path id="Path-49" data-name="Path" d="M23.807,38.672,2.611,50.3,0,53.793,42.1,56.41,40.936,0Z" transform="translate(112.087 101.192)" fill="#c1ccf7"/>
      <path id="Path-50" data-name="Path" d="M46.742,0V53.5H6.1A245.252,245.252,0,0,1,0,22.39a53.1,53.1,0,0,0,11.612-3.78,166.787,166.787,0,0,0,14.807-8.433C32.516,6.977,42.678.581,46.742,0Z" transform="translate(105.989 101.192)" fill="url(#linear-gradient-6)"/>
      <path id="Path-51" data-name="Path" d="M41.517,0a68.256,68.256,0,0,1-2.031,7.269,58.441,58.441,0,0,1-2.033,6.688C30.194,37.219,10.162,51.757.292,57.573H0V0Z" transform="translate(152.731 154.985)" fill="url(#linear-gradient-7)"/>
    </g>
  </g>
</svg>
