<svg xmlns="http://www.w3.org/2000/svg" width="24" height="24" viewBox="0 0 24 24">
    <defs>
        <clipPath id="clip-path">
            <path id="Rectangle_476" fill="#fff" d="M0 0H24V24H0z" data-name="Rectangle 476" transform="translate(1054 709)"/>
        </clipPath>
    </defs>
    <g id="Mask_Group_83" clip-path="url(#clip-path)" data-name="Mask Group 83" transform="translate(-1054 -709)">
        <g id="brands-and-logotypes" transform="translate(1054 709)">
            <path id="Path_1083" fill="#fbbd00" d="M5.625 12a6.336 6.336 0 0 1 .9-3.257V4.7H2.476a12.006 12.006 0 0 0 0 14.6h4.046v-4.043A6.336 6.336 0 0 1 5.625 12z" data-name="Path 1083"/>
            <path id="Path_1084" fill="#0f9d58" d="M12 18.375l-2.812 2.813L12 24a11.909 11.909 0 0 0 7.3-2.476v-4.041h-4.039a6.374 6.374 0 0 1-3.261.892z" data-name="Path 1084"/>
            <path id="Path_1085" fill="#31aa52" d="M6.522 15.257L2.476 19.3a12.191 12.191 0 0 0 1.039 1.183A11.922 11.922 0 0 0 12 24v-5.625a6.378 6.378 0 0 1-5.478-3.118z" data-name="Path 1085"/>
            <path id="Path_1086" fill="#3c79e6" d="M24 12a12.105 12.105 0 0 0-.2-2.174l-.1-.576H12v5.625h5.693a6.346 6.346 0 0 1-2.432 2.608l4.039 4.041a12.191 12.191 0 0 0 1.183-1.039A11.922 11.922 0 0 0 24 12z" data-name="Path 1086"/>
            <path id="Path_1087" fill="#cf2d48" d="M16.508 7.492l.5.5 3.977-3.977-.5-.5A11.921 11.921 0 0 0 12 0L9.187 2.812 12 5.625a6.333 6.333 0 0 1 4.508 1.867z" data-name="Path 1087"/>
            <path id="Path_1088" fill="#eb4132" d="M12 5.625V0a11.922 11.922 0 0 0-8.485 3.515A12.18 12.18 0 0 0 2.476 4.7l4.046 4.043A6.378 6.378 0 0 1 12 5.625z" data-name="Path 1088"/>
        </g>
    </g>
</svg>
