<svg xmlns="http://www.w3.org/2000/svg" width="64" height="64" viewBox="0 0 64 64">
    <defs>
        <clipPath id="clip-path">
            <path id="Rectangle_252" fill="#fff" stroke="#707070" d="M0 0H64V64H0z" data-name="Rectangle 252" transform="translate(454 176)"/>
        </clipPath>
        <style>
            .cls-3{fill:#fff}.cls-5{fill:#1f3b64}
        </style>
    </defs>
    <g id="Mask_Group_36" clip-path="url(#clip-path)" data-name="Mask Group 36" transform="translate(-454 -176)">
        <g id="wallet_1_" data-name="wallet (1)" transform="translate(454 176)">
            <path id="Path_469" d="M62.667 30.658v5.332A2.674 2.674 0 0 1 60 38.655H44a2.674 2.674 0 0 1-2.66-2.665v-5.332a2.674 2.674 0 0 1 2.666-2.666H60a2.674 2.674 0 0 1 2.667 2.666z" class="cls-3" data-name="Path 469"/>
            <path id="Path_470" fill="#bdd3dd" d="M57.335 42.654v10.664a2.674 2.674 0 0 1-2.666 2.666H29.343l-.04-.027A16 16 0 1 0 1.352 45.32V5.332a2.674 2.674 0 0 1 2.665-2.666h29.325a2.674 2.674 0 0 1 2.666 2.666v5.332h18.661a2.674 2.674 0 0 1 2.666 2.666v14.662H44.006a2.674 2.674 0 0 0-2.666 2.666v5.332a2.674 2.674 0 0 0 2.666 2.666h13.329v4z" data-name="Path 470"/>
            <path id="Path_471" d="M33.342 45.32a15.973 15.973 0 1 1 0-.045z" class="cls-3" data-name="Path 471"/>
            <g id="Group_517" data-name="Group 517">
                <path id="Path_472" d="M56 53.318a1.333 1.333 0 0 1-1.333 1.333H34.675v2.666h19.994a4 4 0 0 0 4-4V42.654H56z" class="cls-5" data-name="Path 472"/>
                <path id="Path_473" d="M2.685 5.332A1.333 1.333 0 0 1 4.017 4h29.325a1.333 1.333 0 0 1 1.333 1.333v4H6.683V12h47.986A1.333 1.333 0 0 1 56 13.329v10.664h2.666V13.329a4 4 0 0 0-4-4H37.341v-4a4 4 0 0 0-4-4H4.017a4 4 0 0 0-4 4v27.995h2.667V5.332z" class="cls-5" data-name="Path 473"/>
                <path id="Path_474" d="M60 26.659H44a4 4 0 0 0-4 4v5.331a4 4 0 0 0 4 4h16a4 4 0 0 0 4-4v-5.332a4 4 0 0 0-4-3.999zm1.333 9.331A1.333 1.333 0 0 1 60 37.323H44a1.333 1.333 0 0 1-1.333-1.333v-5.332A1.333 1.333 0 0 1 44 29.325h16a1.333 1.333 0 0 1 1.333 1.333z" class="cls-5" data-name="Path 474"/>
                <path id="Path_475" d="M17.347 27.992a17.338 17.338 0 1 0 17.328 17.347v-.019a17.348 17.348 0 0 0-17.328-17.328zm10.962 27.079a14.672 14.672 0 1 1 3.7-9.751 14.672 14.672 0 0 1-3.7 9.751z" class="cls-5" data-name="Path 475"/>
                <path id="Path_476" d="M20.013 38.655H18.68V35.99h-2.666v2.666h-1.333a2.666 2.666 0 0 0-2.666 2.666v2.666a2.666 2.666 0 0 0 2.666 2.666h5.332v2.666h-5.332v-1.334h-2.666v1.333a2.666 2.666 0 0 0 2.666 2.666h1.333v2.666h2.666v-2.666h1.333a2.666 2.666 0 0 0 2.666-2.666v-2.666a2.666 2.666 0 0 0-2.666-2.666h-5.332v-2.666h5.332v1.333h2.666v-1.333a2.666 2.666 0 0 0-2.666-2.666z" class="cls-5" data-name="Path 476"/>
                <path id="Path_477" d="M45.339 31.991H48v2.666h-2.661z" class="cls-5" data-name="Path 477"/>
                <path id="Path_478" d="M52 22.66v-5.332A1.333 1.333 0 0 0 50.671 16h-5.332v2.666h4v4H52z" class="cls-5" data-name="Path 478"/>
            </g>
        </g>
    </g>
</svg>
