<svg xmlns="http://www.w3.org/2000/svg" width="64" height="64" viewBox="0 0 64 64">
    <defs>
        <clipPath id="clip-path">
            <path id="Rectangle_262" fill="#fff" stroke="#707070" d="M0 0H64V64H0z" transform="translate(1631 176)"/>
        </clipPath>
        <style>
            .cls-4{fill:#fff}.cls-3{fill:#bdd3dd}.cls-5{fill:#1f3b64}
        </style>
    </defs>
    <g id="Mask_Group_39" clip-path="url(#clip-path)" transform="translate(-1631 -176)">
        <g id="business-and-finance_2_" transform="translate(1631 176)">
            <path id="Path_526" d="M62.667 24v26.667A1.333 1.333 0 0 1 61.333 52h-40A1.333 1.333 0 0 1 20 50.667V24h1.333l20 12 20-12 .133-1.32A1.333 1.333 0 0 1 62.667 24z" class="cls-3"/>
            <path id="Path_527" d="M61.333 22.667a.453.453 0 0 1 .133.013L61.333 24l-20 12-20-12H20a1.333 1.333 0 0 1 1.333-1.333h40z" class="cls-4"/>
            <path id="Path_528" d="M49.333 12h-8a2.675 2.675 0 0 1-2.667-2.667v-8z" class="cls-3"/>
            <path id="Path_529" d="M49.333 57.333V60a2.675 2.675 0 0 1-2.667 2.667H4A2.675 2.675 0 0 1 1.333 60V4A2.675 2.675 0 0 1 4 1.333h34.667v8A2.675 2.675 0 0 0 41.333 12h8v10.667h-28A1.333 1.333 0 0 0 20 24v26.667A1.333 1.333 0 0 0 21.333 52h28v5.333z" class="cls-4"/>
            <g id="Group_526">
                <path id="Path_530" d="M8 8h13.333v2.667H8z" class="cls-5"/>
                <path id="Path_531" d="M8 13.333h2.667V16H8z" class="cls-5"/>
                <path id="Path_532" d="M13.333 13.333H16V16h-2.667z" class="cls-5"/>
                <path id="Path_533" d="M48 60a1.333 1.333 0 0 1-1.333 1.333H4A1.333 1.333 0 0 1 2.667 60V4A1.333 1.333 0 0 1 4 2.667h33.333v6.666a4 4 0 0 0 4 4H44v-2.666h-2.667A1.333 1.333 0 0 1 40 9.333V4.552l8 8v4.781h2.667V12a1.334 1.334 0 0 0-.391-.943L39.609.391A1.333 1.333 0 0 0 38.667 0H4a4 4 0 0 0-4 4v56a4 4 0 0 0 4 4h42.667a4 4 0 0 0 4-4v-2.667H48z" class="cls-5"/>
                <path id="Path_534" d="M61.691 21.363a1.913 1.913 0 0 0-.357-.029h-40A2.667 2.667 0 0 0 18.667 24v26.666a2.667 2.667 0 0 0 2.667 2.667h40A2.667 2.667 0 0 0 64 50.666V24a2.654 2.654 0 0 0-2.309-2.637zM58.741 24L41.333 34.445 23.925 24zM21.333 50.667V25.555l19.314 11.588a1.333 1.333 0 0 0 1.373 0l19.314-11.588v25.112h-40z" class="cls-5"/>
            </g>
        </g>
    </g>
</svg>
