<svg xmlns="http://www.w3.org/2000/svg" width="64" height="64" viewBox="0 0 64 64">
    <defs>
        <clipPath id="clip-path">
            <path id="Rectangle_261" fill="#fff" stroke="#707070" d="M0 0H64V64H0z" transform="translate(1048 176)"/>
        </clipPath>
        <style>
            .cls-3{fill:#fff}.cls-4{fill:#bdd3dd}.cls-5{fill:#1f3b64}
        </style>
    </defs>
    <g id="Mask_Group_40" clip-path="url(#clip-path)" transform="translate(-1048 -176)">
        <g id="mail" transform="translate(1048 176)">
            <path id="Path_535" d="M17.333 9.333h13.334v5.333H17.333z" class="cls-3"/>
            <path id="Path_536" d="M30.667 14.667V9.333H17.333v5.333h13.334zm8.106 22.773L32 42.667l-6.773-5.227L9.333 25.147V2.667h45.334v22.48z" class="cls-4"/>
            <g id="Group_527">
                <path id="Path_537" d="M9.333 15.773v9.373l-6.386-4.933z" class="cls-3"/>
                <path id="Path_538" d="M54.667 15.76l6.387 4.453-6.387 4.933z" class="cls-3"/>
                <path id="Path_539" d="M54.667 25.147l6.387-4.933 1.613 1.12v37.333a2.607 2.607 0 0 1-.787 1.88L56 54.667 38.773 37.44z" class="cls-3"/>
            </g>
            <path id="Path_540" d="M56 54.667l5.88 5.88a2.607 2.607 0 0 1-1.88.787H4a2.607 2.607 0 0 1-1.88-.787L8 54.667 25.227 37.44 32 42.667l6.773-5.227z" class="cls-4"/>
            <path id="Path_541" d="M9.333 25.147L25.227 37.44 8 54.667l-5.88 5.88a2.607 2.607 0 0 1-.787-1.88V21.333l1.613-1.12z" class="cls-3"/>
            <g id="Group_528">
                <path id="Path_542" d="M63.427 20.239L56 15.067v-12.4a1.333 1.333 0 0 0-1.333-1.333H9.333A1.333 1.333 0 0 0 8 2.667v12.409L.573 20.239A1.334 1.334 0 0 0 0 21.333v37.334a3.9 3.9 0 0 0 1.165 2.809A3.913 3.913 0 0 0 4 62.667h56a4.02 4.02 0 0 0 4-4V21.333a1.333 1.333 0 0 0-.573-1.094zm-4.627.028l-2.8 2.17v-4.122zM53.333 4v20.5L32 40.983l-21.333-16.49V4zM8 22.433l-2.8-2.166L8 18.324zm53.333 36.234a1.3 1.3 0 0 1-.408.951A1.287 1.287 0 0 1 60 60H4a1.3 1.3 0 0 1-.949-.408 1.276 1.276 0 0 1-.384-.925V22.031l.236-.164 20.313 15.7L7.057 53.724l1.885 1.885 16.4-16.4 5.841 4.515a1.334 1.334 0 0 0 1.629 0l5.841-4.515 16.4 16.4 1.885-1.885-16.158-16.16L55.479 26.2l5.621-4.333.236.164v36.636z" class="cls-5"/>
                <path id="Path_543" d="M17.333 16h13.334v-2.667h-12v-2.666h12V8H17.333A1.333 1.333 0 0 0 16 9.333v5.333A1.333 1.333 0 0 0 17.333 16z" class="cls-5"/>
                <path id="Path_544" d="M33.333 13.333H36V16h-2.667z" class="cls-5"/>
                <path id="Path_545" d="M38.667 13.333h2.667V16h-2.667z" class="cls-5"/>
                <path id="Path_546" d="M33.333 8H48v2.667H33.333z" class="cls-5"/>
                <path id="Path_547" d="M16 18.667h33.333v2.667H16z" class="cls-5"/>
            </g>
        </g>
    </g>
</svg>
