<svg xmlns="http://www.w3.org/2000/svg" width="64" height="64" viewBox="0 0 64 64">
    <defs>
        <clipPath id="clip-path">
            <path id="Rectangle_260" fill="#fff" stroke="#707070" d="M0 0H64V64H0z" transform="translate(454 176)"/>
        </clipPath>
        <style>
            .cls-3{fill:#fff}.cls-4{fill:#bdd3dd}.cls-5{fill:#1f3b64}
        </style>
    </defs>
    <g id="Mask_Group_41" clip-path="url(#clip-path)" transform="translate(-454 -176)">
        <g id="envelope" transform="translate(454 176)">
            <g id="Group_529">
                <path id="Path_548" d="M9.338 4.012v22.476l15.89 12.291L32 44l6.772-5.226 15.89-12.291V4.012z" class="cls-3"/>
                <path id="Path_549" d="M9.338 17.116v9.371l-6.385-4.932z" class="cls-3"/>
                <path id="Path_550" d="M54.662 17.1l6.385 4.452-6.385 4.932z" class="cls-3"/>
                <path id="Path_551" d="M54.662 26.488l6.385-4.932 1.613 1.12V60a2.606 2.606 0 0 1-.786 1.88L55.995 56 38.772 38.779z" class="cls-3"/>
            </g>
            <path id="Path_552" d="M55.995 56l5.879 5.879a2.606 2.606 0 0 1-1.88.786H4.006a2.607 2.607 0 0 1-1.88-.786L8 56l17.228-17.221L32 44l6.772-5.226z" class="cls-4"/>
            <path id="Path_553" d="M9.338 26.488l15.89 12.291L8 56l-5.874 5.88A2.606 2.606 0 0 1 1.34 60V22.675l1.613-1.12z" class="cls-3"/>
            <circle id="Ellipse_77" cx="14.664" cy="14.664" r="14.664" class="cls-4" transform="translate(17.336 1.346)"/>
            <path id="Path_554" d="M34.666 38.672v3.266L32 44l-2.666-2.066v-3.262a2.666 2.666 0 1 1 5.332 0z" class="cls-3"/>
            <g id="Group_530">
                <path id="Path_555" d="M63.42 21.581l-7.425-5.171V4.012a1.333 1.333 0 0 0-1.333-1.333H49.33v2.666h4v20.494L36 39.228v-.556a4 4 0 0 0-2.666-3.754v-2.979a16 16 0 1 0-2.666 0v2.975a3.8 3.8 0 0 0-1.477.924A3.924 3.924 0 0 0 28 38.672v.556L10.671 25.835V5.346h4V2.679H9.338A1.333 1.333 0 0 0 8 4.012v12.407L.58 21.581a1.333 1.333 0 0 0-.573 1.094V60a4 4 0 0 0 4 4h55.987a4 4 0 0 0 4-4V22.675a1.333 1.333 0 0 0-.574-1.094zm-7.425-1.924l2.8 1.952-2.8 2.169zM18.669 16.01A13.331 13.331 0 1 1 32 29.341 13.345 13.345 0 0 1 18.669 16.01zm12 22.662a1.3 1.3 0 0 1 .408-.95 1.286 1.286 0 0 1 .923-.383 1.333 1.333 0 0 1 1.333 1.333v2.617L32 42.318l-1.333-1.029v-2.617zM8 23.775l-2.8-2.166L8 19.667zM61.327 60a1.333 1.333 0 0 1-1.333 1.333H4.006A1.333 1.333 0 0 1 2.673 60V23.372l.236-.164L23.219 38.9 7.062 55.059l1.885 1.885 16.4-16.4L28 42.6v.073h.1l3.089 2.386a1.333 1.333 0 0 0 1.632 0l3.079-2.388h.1V42.6l2.654-2.053 16.4 16.4 1.885-1.885L40.781 38.9l14.7-11.359 5.615-4.334.236.164z" class="cls-5"/>
                <path id="Path_556" d="M32 6.678a9.342 9.342 0 0 0-9.331 9.331h2.666A6.673 6.673 0 0 1 32 9.345V6.678z" class="cls-5"/>
            </g>
        </g>
    </g>
</svg>
