<svg xmlns="http://www.w3.org/2000/svg" width="64" height="64" viewBox="0 0 64 64">
    <defs>
        <clipPath id="clip-path">
            <path id="Rectangle_281" fill="#fff" stroke="#707070" d="M0 0H64V64H0z" data-name="Rectangle 281" transform="translate(454 176)"/>
        </clipPath>
        <style>
            .cls-3{fill:#bdd3dd}.cls-5{fill:#1f3b64}
        </style>
    </defs>
    <g id="Mask_Group_43" clip-path="url(#clip-path)" data-name="Mask Group 43" transform="translate(-454 -176)">
        <g id="research" transform="translate(454 176)">
            <path id="Path_586" d="M62.657 12.017h-8a2.674 2.674 0 0 1-2.666-2.666v-8z" class="cls-3" data-name="Path 586"/>
            <path id="Path_587" fill="#fff" d="M62.657 12.017V60a2.674 2.674 0 0 1-2.666 2.666H17.339A2.674 2.674 0 0 1 14.673 60V4.02a2.674 2.674 0 0 1 2.666-2.666h34.655v8a2.674 2.674 0 0 0 2.666 2.666h8z" data-name="Path 587"/>
            <g id="Group_537" data-name="Group 537">
                <path id="Path_588" d="M34.666 21.347h21.327v13.329H34.666z" class="cls-3" data-name="Path 588"/>
                <path id="Path_589" d="M21.337 46.672V60a2.666 2.666 0 0 1-5.331 0V46.672a2.666 2.666 0 0 1 5.331 0z" class="cls-3" data-name="Path 589"/>
                <circle id="Ellipse_82" cx="17.328" cy="17.328" r="17.328" class="cls-3" data-name="Ellipse 82" transform="translate(1.344 1.354)"/>
            </g>
            <g id="Group_538" data-name="Group 538">
                <path id="Path_590" d="M20 42.916v-5.642a18.661 18.661 0 1 0-2.666 0v5.645a4 4 0 0 0-2.666 3.753V60a4 4 0 0 0 8 0V46.672A3.991 3.991 0 0 0 20 42.916zM2.677 18.682a15.995 15.995 0 1 1 15.994 15.994A15.995 15.995 0 0 1 2.677 18.682zM20 60a1.333 1.333 0 1 1-2.666 0V46.672a1.333 1.333 0 0 1 1.333-1.333 1.3 1.3 0 0 1 .949.408 1.276 1.276 0 0 1 .384.925z" class="cls-5" data-name="Path 590"/>
                <path id="Path_591" d="M63.6 11.075L52.936.412a1.332 1.332 0 0 0-.942-.39H33.333v2.665h17.328v6.664a4 4 0 0 0 4 4h2.666v-2.667H54.66a1.333 1.333 0 0 1-1.333-1.333V4.572l8 8V60a1.333 1.333 0 0 1-1.333 1.333H25.336V64h34.655a4 4 0 0 0 4-4V12.017a1.332 1.332 0 0 0-.391-.942z" class="cls-5" data-name="Path 591"/>
                <path id="Path_592" d="M17.339 17.349H20v2.666h-2.661z" class="cls-5" data-name="Path 592"/>
                <path id="Path_593" d="M24 17.349h2.666v2.666H24v-2.666z" class="cls-5" data-name="Path 593"/>
                <path id="Path_594" d="M10.674 17.349h2.666v2.666h-2.666z" class="cls-5" data-name="Path 594"/>
                <path id="Path_595" d="M34.666 33.344v2.666h21.327a1.333 1.333 0 0 0 1.333-1.333v-13.33a1.333 1.333 0 0 0-1.333-1.333H41.331v2.666H54.66v10.663H34.666z" class="cls-5" data-name="Path 595"/>
                <path id="Path_596" d="M30.668 40.008h26.657v2.666H30.668z" class="cls-5" data-name="Path 596"/>
                <path id="Path_597" d="M54.66 46.672h2.666v2.666H54.66z" class="cls-5" data-name="Path 597"/>
                <path id="Path_598" d="M49.328 46.672h2.666v2.666h-2.666z" class="cls-5" data-name="Path 598"/>
            </g>
        </g>
    </g>
</svg>
