<svg xmlns="http://www.w3.org/2000/svg" width="64" height="64" viewBox="0 0 64 64">
    <defs>
        <clipPath id="clip-path">
            <path id="Rectangle_286" fill="#fff" stroke="#707070" d="M0 0H64V64H0z" data-name="Rectangle 286" transform="translate(1048 176)"/>
        </clipPath>
        <style>
            .cls-5{fill:#1f3b64}
        </style>
    </defs>
    <g id="Mask_Group_47" clip-path="url(#clip-path)" data-name="Mask Group 47" transform="translate(-1048 -176)">
        <g id="question" transform="translate(1048 176)">
            <path id="Path_633" fill="#fff" d="M57.333 20v26.666S56 53.333 50.667 53.333v9.333h-28V52c0-4-2.667-4-2.667-4h-8a3.917 3.917 0 0 1-4-3.833v-5.141a6.343 6.343 0 0 0-4-1.693 2.612 2.612 0 0 1-2.667-2.556v-.11L8 22.587V20A18.666 18.666 0 0 1 26.668 1.334h10.666c10.306 0 20 8.36 20 18.666z" data-name="Path 633"/>
            <circle id="Ellipse_84" cx="19.999" cy="19.999" r="19.999" fill="#bdd3dd" data-name="Ellipse 84" transform="translate(22.668 1.334)"/>
            <g id="Group_554" data-name="Group 554">
                <path id="Path_634" d="M56 46.52c-.192.8-1.477 5.48-5.333 5.48a1.333 1.333 0 0 0-1.333 1.333v8H24V52c0-4.219-2.616-5.333-4-5.333h-8A2.511 2.511 0 0 1 9.335 44v-4.97a1.333 1.333 0 0 0-.449-1A7.7 7.7 0 0 0 4 36a1.171 1.171 0 0 1-1.3-1.021v-.018l6.469-11.733a1.342 1.342 0 0 0 .165-.644V20A17.353 17.353 0 0 1 26.668 2.667V0a20.022 20.022 0 0 0-20 20v2.241L.167 34.023a1.342 1.342 0 0 0-.167.644 3.888 3.888 0 0 0 3.773 4H4a4.774 4.774 0 0 1 2.667 1V44a5.184 5.184 0 0 0 5.03 5.333h8.262c.228.016 1.371.213 1.371 2.667v10.666A1.333 1.333 0 0 0 22.668 64h28A1.333 1.333 0 0 0 52 62.666v-8.123c4.168-.788 6.154-5.185 6.64-7.616a1.329 1.329 0 0 0 .027-.261v-4H56v3.854z" class="cls-5" data-name="Path 634"/>
                <path id="Path_635" d="M42.667 42.666a21.333 21.333 0 1 0-21.333-21.332 21.333 21.333 0 0 0 21.333 21.332zm0-40A18.666 18.666 0 1 1 24 21.334 18.666 18.666 0 0 1 42.667 2.667z" class="cls-5" data-name="Path 635"/>
                <path id="Path_636" d="M37.334 13.334A1.333 1.333 0 0 1 38.667 12h8A1.333 1.333 0 0 1 48 13.334v5.333A1.333 1.333 0 0 1 46.667 20h-4A2.612 2.612 0 0 0 40 22.556V28h2.667v-5.333h4a4 4 0 0 0 4-4v-5.333a4 4 0 0 0-4-4h-8a4 4 0 0 0-4 4v5.333h2.667z" class="cls-5" data-name="Path 636"/>
                <path id="Path_637" d="M40 30.667h2.667v2.667H40z" class="cls-5" data-name="Path 637"/>
            </g>
        </g>
    </g>
</svg>
