<svg xmlns="http://www.w3.org/2000/svg" width="64" height="64" viewBox="0 0 64 64">
    <defs>
        <clipPath id="clip-path">
            <path id="Rectangle_285" fill="#fff" stroke="#707070" d="M0 0H64V64H0z" data-name="Rectangle 285" transform="translate(1631 176)"/>
        </clipPath>
        <style>
            .cls-3{fill:#fff}.cls-5{fill:#1f3b64}
        </style>
    </defs>
    <g id="Mask_Group_48" clip-path="url(#clip-path)" data-name="Mask Group 48" transform="translate(-1631 -176)">
        <g id="teamwork" transform="translate(1631 176)">
            <g id="Group_555" data-name="Group 555">
                <path id="Path_638" d="M45.307 29.093A7.918 7.918 0 0 1 49.333 28a8 8 0 0 1 8 8v4A7.988 7.988 0 0 1 52 47.533v1.8A56.073 56.073 0 0 0 58.667 52c4 1.333 4 4 4 4v8H36v-8s0-2.667 4-4a56.064 56.064 0 0 0 6.667-2.667v-1.8A7.988 7.988 0 0 1 41.333 40v-4a8 8 0 0 1 3.973-6.907z" class="cls-3" data-name="Path 638"/>
                <path id="Path_639" d="M28 62.667V64H1.333v-8s0-2.667 4-4A56.064 56.064 0 0 0 12 49.333v-1.8A7.988 7.988 0 0 1 6.667 40v-4a8 8 0 0 1 16 0v4a7.988 7.988 0 0 1-5.333 7.533v1.8A56.074 56.074 0 0 0 24 52c4 1.333 4 4 4 4z" class="cls-3" data-name="Path 639"/>
            </g>
            <path id="Path_640" fill="#bdd3dd" d="M46.667 47.533v1.8A56.064 56.064 0 0 1 40 52c-4 1.333-4 4-4 4v6.667h-8V56s0-2.667-4-4a56.064 56.064 0 0 1-6.667-2.667v-1.8A7.988 7.988 0 0 0 22.667 40v-4a8 8 0 0 0-3.973-6.907c.107-.68.693-2.667 3.973-3.76a56.064 56.064 0 0 0 6.667-2.667v-1.8A7.988 7.988 0 0 1 24 13.333v-4a8 8 0 0 1 16 0v4a7.988 7.988 0 0 1-5.333 7.533v1.8a56.073 56.073 0 0 0 6.667 2.667c3.28 1.093 3.867 3.08 3.973 3.76A8 8 0 0 0 41.333 36v4a7.988 7.988 0 0 0 5.334 7.533z" data-name="Path 640"/>
            <g id="Group_556" data-name="Group 556">
                <path id="Path_641" d="M59.088 50.735a59.5 59.5 0 0 1-5.755-2.247v-.064A9.333 9.333 0 0 0 58.667 40v-4a9.294 9.294 0 0 0-12.611-8.721 7.245 7.245 0 0 0-4.3-3.211A59.5 59.5 0 0 1 36 21.821v-.064a9.333 9.333 0 0 0 5.333-8.424v-4a9.333 9.333 0 1 0-18.667 0v4A9.333 9.333 0 0 0 28 21.757v.064a59.452 59.452 0 0 1-5.755 2.247 7.249 7.249 0 0 0-4.3 3.211A9.292 9.292 0 0 0 5.333 36v4a9.333 9.333 0 0 0 5.333 8.424v.064a59.452 59.452 0 0 1-5.755 2.247C.056 52.353 0 55.852 0 56v8h2.667v-7.964c0-.072.133-1.787 3.089-2.771a56.991 56.991 0 0 0 6.84-2.732 1.333 1.333 0 0 0 .737-1.2v-1.8a1.333 1.333 0 0 0-.891-1.257A6.667 6.667 0 0 1 8 40v-4a6.675 6.675 0 0 1 6.667-6.667 6.586 6.586 0 0 1 3.353.911A6.7 6.7 0 0 1 21.333 36v4a6.667 6.667 0 0 1-4.443 6.276 1.333 1.333 0 0 0-.89 1.257v1.8a1.333 1.333 0 0 0 .737 1.2 56.981 56.981 0 0 0 6.841 2.739c2.955.977 3.088 2.692 3.088 2.728v8h2.667v-8c0-.148-.056-3.647-4.912-5.265a59.5 59.5 0 0 1-5.755-2.247v-.064A9.333 9.333 0 0 0 24 40v-4a9.361 9.361 0 0 0-3.712-7.433 4.723 4.723 0 0 1 2.8-1.968 56.981 56.981 0 0 0 6.841-2.732 1.333 1.333 0 0 0 .737-1.2v-1.8a1.333 1.333 0 0 0-.891-1.257 6.667 6.667 0 0 1-4.443-6.276v-4a6.667 6.667 0 0 1 13.333 0v4a6.667 6.667 0 0 1-4.443 6.276 1.333 1.333 0 0 0-.891 1.257v1.8a1.333 1.333 0 0 0 .737 1.193 56.982 56.982 0 0 0 6.844 2.74 4.691 4.691 0 0 1 2.8 1.972A9.364 9.364 0 0 0 40 36v4a9.333 9.333 0 0 0 5.333 8.424v.064a59.452 59.452 0 0 1-5.755 2.247c-4.856 1.619-4.912 5.117-4.912 5.265v8h2.667v-7.964c0-.072.133-1.787 3.089-2.771a56.991 56.991 0 0 0 6.84-2.732 1.333 1.333 0 0 0 .737-1.2v-1.8a1.333 1.333 0 0 0-.891-1.257A6.666 6.666 0 0 1 42.667 40v-4a6.7 6.7 0 0 1 3.319-5.759 6.576 6.576 0 0 1 3.348-.908A6.675 6.675 0 0 1 56 36v4a6.667 6.667 0 0 1-4.443 6.276 1.333 1.333 0 0 0-.891 1.257v1.8a1.333 1.333 0 0 0 .737 1.2 56.982 56.982 0 0 0 6.841 2.739c2.955.977 3.088 2.692 3.088 2.728v8H64v-8c0-.148-.056-3.647-4.912-5.265z" class="cls-5" data-name="Path 641"/>
                <path id="Path_642" d="M30.667 36h2.667v2.667h-2.667V36z" class="cls-5" data-name="Path 642"/>
                <path id="Path_643" d="M30.667 30.667h2.667v2.667h-2.667v-2.667z" class="cls-5" data-name="Path 643"/>
                <path id="Path_644" d="M30.667 41.333h2.667V44h-2.667v-2.667z" class="cls-5" data-name="Path 644"/>
                <path id="Path_645" d="M20 57.333h2.667V64H20z" class="cls-5" data-name="Path 645"/>
                <path id="Path_646" d="M6.667 57.333h2.666V64H6.667z" class="cls-5" data-name="Path 646"/>
                <path id="Path_647" d="M41.333 57.333H44V64h-2.667z" class="cls-5" data-name="Path 647"/>
                <path id="Path_648" d="M54.667 57.333h2.667V64h-2.667z" class="cls-5" data-name="Path 648"/>
            </g>
        </g>
    </g>
</svg>
