<svg xmlns="http://www.w3.org/2000/svg" width="64" height="64" viewBox="0 0 64 64">
    <defs>
        <clipPath id="clip-path">
            <path id="Rectangle_291" fill="#fff" stroke="#707070" d="M0 0H64V64H0z" transform="translate(454 176)"/>
        </clipPath>
        <style>
            .cls-5{fill:#1f3b64}
        </style>
    </defs>
    <g id="Mask_Group_49" clip-path="url(#clip-path)" transform="translate(-454 -176)">
        <g id="target" transform="translate(454 176)">
            <circle id="Ellipse_89" cx="24" cy="24" r="24" fill="#bdd3dd" transform="translate(8 8)"/>
            <path id="Path_657" fill="#fff" d="M45.333 48v8h-20l-6.667-4v-4s0-2.667 4-4a56.063 56.063 0 0 0 6.667-2.667v-1.8A7.988 7.988 0 0 1 24 32v-4a8 8 0 1 1 16 0v4a7.988 7.988 0 0 1-5.333 7.533v1.8A56.073 56.073 0 0 0 41.333 44c4 1.333 4 4 4 4z"/>
            <g id="Group_572">
                <path id="Path_658" d="M57.333 32A25.361 25.361 0 0 0 32 6.667h-3.448l4.391-4.391L31.057.391l-6.666 6.666a1.333 1.333 0 0 0 0 1.885l6.667 6.667 1.885-1.885-4.391-4.391H32A22.692 22.692 0 0 1 54.667 32z" class="cls-5"/>
                <path id="Path_659" d="M32.943 48.391l-1.885 1.885 4.391 4.391H32A22.692 22.692 0 0 1 9.333 32H6.667A25.361 25.361 0 0 0 32 57.333h3.448l-4.391 4.391 1.885 1.885 6.667-6.667a1.333 1.333 0 0 0 0-1.885z" class="cls-5"/>
                <path id="Path_660" d="M41.755 42.735A59.5 59.5 0 0 1 36 40.488v-.063A9.348 9.348 0 0 0 41.333 32v-4a9.333 9.333 0 1 0-18.667 0v4A9.348 9.348 0 0 0 28 40.425v.063a59.453 59.453 0 0 1-5.755 2.247 8.715 8.715 0 0 0-3.045 1.681l1.769 2a6.053 6.053 0 0 1 2.123-1.147 56.98 56.98 0 0 0 6.837-2.736 1.333 1.333 0 0 0 .737-1.2v-1.8a1.333 1.333 0 0 0-.888-1.257A6.675 6.675 0 0 1 25.333 32v-4a6.667 6.667 0 0 1 13.333 0v4a6.675 6.675 0 0 1-4.445 6.277 1.333 1.333 0 0 0-.888 1.257v1.8a1.333 1.333 0 0 0 .737 1.193 56.981 56.981 0 0 0 6.841 2.739C43.867 46.249 44 47.964 44 48v8h2.667v-8c0-.148-.056-3.647-4.912-5.265z" class="cls-5"/>
                <path id="Path_661" d="M6.667 24h2.666v-8a5.183 5.183 0 0 0-5.027-5.333H0v2.667h4A2.512 2.512 0 0 1 6.667 16z" class="cls-5"/>
                <path id="Path_662" d="M60 50.667A2.512 2.512 0 0 1 57.333 48v-8h-2.666v8a5.183 5.183 0 0 0 5.027 5.333H64v-2.666h-4z" class="cls-5"/>
                <path id="Path_663" d="M6.667 26.667h2.666v2.667H6.667z" class="cls-5"/>
                <path id="Path_664" d="M12 26.667h2.667v2.667H12z" class="cls-5"/>
                <path id="Path_665" d="M17.333 26.667H20v2.667h-2.667v-2.667z" class="cls-5"/>
                <path id="Path_666" d="M49.333 34.667H52v2.667h-2.667z" class="cls-5"/>
                <path id="Path_667" d="M44 34.667h2.667v2.667H44z" class="cls-5"/>
                <path id="Path_668" d="M54.667 34.667h2.667v2.667h-2.667z" class="cls-5"/>
            </g>
        </g>
    </g>
</svg>
