<svg xmlns="http://www.w3.org/2000/svg" width="64" height="64" viewBox="0 0 64 64">
    <defs>
        <clipPath id="clip-path">
            <path id="Rectangle_292" fill="#fff" stroke="#707070" d="M0 0H64V64H0z" transform="translate(850 176)"/>
        </clipPath>
        <style>
            .cls-4{fill:#fff}.cls-3{fill:#bdd3dd}.cls-5{fill:#1f3b64}
        </style>
    </defs>
    <g id="Mask_Group_50" clip-path="url(#clip-path)" transform="translate(-850 -176)">
        <g id="monitor" transform="translate(850 176)">
            <g id="Group_573">
                <path id="Path_669" d="M56 32v4H8V8h48z" class="cls-3"/>
                <path id="Path_670" d="M45.333 57.333v4A1.333 1.333 0 0 1 44 62.667H20a1.333 1.333 0 0 1-1.333-1.333v-4z" class="cls-3"/>
            </g>
            <path id="Path_671" d="M22.667 46.667h18.666v10.666H22.667z" class="cls-4"/>
            <path id="Path_672" d="M62.667 36v8A2.675 2.675 0 0 1 60 46.667H4A2.675 2.675 0 0 1 1.333 44v-8z" class="cls-3"/>
            <g id="Group_574">
                <path id="Path_673" d="M62.667 4v32H56V8H8v28H1.333V4A2.675 2.675 0 0 1 4 1.333h56A2.675 2.675 0 0 1 62.667 4z" class="cls-4"/>
                <path id="Path_674" d="M41.333 13.333h9.333v5.333h-9.333z" class="cls-4"/>
                <path id="Path_675" d="M37.333 29.333V32H10.667v-2.667s0-2.667 4-4a56.064 56.064 0 0 0 6.667-2.667v-1.8A7.988 7.988 0 0 1 16 13.333v-4a8 8 0 1 1 16 0v4a7.988 7.988 0 0 1-5.333 7.533v1.8a56.073 56.073 0 0 0 6.667 2.667c3.999 1.334 3.999 4 3.999 4z" class="cls-4"/>
            </g>
            <g id="Group_575">
                <path id="Path_676" d="M5.333 34.667h53.334v2.667H5.333z" class="cls-5"/>
                <path id="Path_677" d="M60 0H34.667v2.667H60A1.333 1.333 0 0 1 61.333 4v40A1.333 1.333 0 0 1 60 45.333H4A1.333 1.333 0 0 1 2.667 44V4A1.333 1.333 0 0 1 4 2.667h9.333V0H4a4 4 0 0 0-4 4v40a4 4 0 0 0 4 4h17.333v8h-2.666a1.333 1.333 0 0 0-1.333 1.333v4h-2.667V64h34.666v-2.667h-2.666v-4A1.333 1.333 0 0 0 45.333 56h-2.666v-8H60a4 4 0 0 0 4-4V4a4 4 0 0 0-4-4zM44 61.333H20v-2.666h24zM40 56H24v-8h16z" class="cls-5"/>
                <path id="Path_678" d="M56 6.667H37.333v2.666h17.334V32h2.667V8A1.333 1.333 0 0 0 56 6.667z" class="cls-5"/>
                <path id="Path_679" d="M14.245 24.068c-4.856 1.619-4.912 5.117-4.912 5.265V32H12v-2.631c0-.072.133-1.787 3.089-2.771a56.991 56.991 0 0 0 6.84-2.732 1.333 1.333 0 0 0 .737-1.2v-1.8a1.333 1.333 0 0 0-.891-1.257 6.667 6.667 0 0 1-4.443-6.276v-4a6.667 6.667 0 0 1 13.333 0v4a6.667 6.667 0 0 1-4.443 6.276 1.333 1.333 0 0 0-.891 1.257v1.8a1.333 1.333 0 0 0 .737 1.193 56.982 56.982 0 0 0 6.844 2.741c2.955.983 3.088 2.7 3.088 2.733V32h2.667v-2.667c0-.148-.056-3.647-4.912-5.265A59.5 59.5 0 0 1 28 21.821v-.064a9.333 9.333 0 0 0 5.333-8.424v-4a9.333 9.333 0 0 0-18.667 0v4A9.333 9.333 0 0 0 20 21.757v.064a59.517 59.517 0 0 1-5.755 2.247z" class="cls-5"/>
                <path id="Path_680" d="M52 13.333A1.333 1.333 0 0 0 50.667 12h-9.334A1.333 1.333 0 0 0 40 13.333v5.333A1.333 1.333 0 0 0 41.333 20h9.333A1.333 1.333 0 0 0 52 18.667v-5.334zm-2.667 4h-6.666v-2.666h6.667z" class="cls-5"/>
                <path id="Path_681" d="M44 22.667h2.667v2.667H44z" class="cls-5"/>
                <path id="Path_682" d="M49.333 22.667H52v2.667h-2.667z" class="cls-5"/>
                <path id="Path_683" d="M44 28h8v2.667h-8z" class="cls-5"/>
            </g>
        </g>
    </g>
</svg>
