<svg xmlns="http://www.w3.org/2000/svg" width="64" height="64" viewBox="0 0 64 64">
    <defs>
        <clipPath id="clip-path">
            <path id="Rectangle_304" fill="#fff" stroke="#707070" d="M0 0H64V64H0z" transform="translate(454 176)"/>
        </clipPath>
        <style>
            .cls-4{fill:#fff}.cls-3{fill:#bdd3dd}.cls-5{fill:#1f3b64}
        </style>
    </defs>
    <g id="Mask_Group_56" clip-path="url(#clip-path)" transform="translate(-454 -176)">
        <g id="certified" transform="translate(454 176)">
            <path id="Path_762" d="M40 48.319a10.643 10.643 0 0 0 13.333 0v14.347l-6.667-5.333L40 62.666V48.319z" class="cls-3"/>
            <path id="Path_763" d="M53.333 48.319a10.643 10.643 0 0 1-13.333 0 10.475 10.475 0 0 1-2.573-2.987 10.667 10.667 0 1 1 15.907 2.987zM52 40a5.333 5.333 0 1 0-5.333 5.333A5.333 5.333 0 0 0 52 40z" class="cls-4"/>
            <g id="Group_588">
                <circle id="Ellipse_101" cx="5.333" cy="5.333" r="5.333" class="cls-3" transform="translate(41.333 34.666)"/>
                <path id="Path_764" d="M18.667 14.666h26.666V20H18.667z" class="cls-3"/>
            </g>
            <path id="Path_765" d="M56 26.666v8.174a10.667 10.667 0 1 0-18.662 10.336q.043.079.089.157h-22.76A6.667 6.667 0 0 0 8 38.666v-24A6.667 6.667 0 0 0 14.667 8h34.666A6.667 6.667 0 0 0 56 14.666v12zM45.333 20v-5.334H18.667V20z" class="cls-4"/>
            <path id="Path_766" d="M53.333 48.319a10.608 10.608 0 0 0 4-8.32A10.5 10.5 0 0 0 56 34.84V14.666A6.667 6.667 0 0 1 49.333 8H14.667A6.667 6.667 0 0 1 8 14.666v24a6.667 6.667 0 0 1 6.667 6.667h22.76A10.472 10.472 0 0 0 40 48.319V52H4a2.675 2.675 0 0 1-2.667-2.667V4A2.675 2.675 0 0 1 4 1.333h56A2.675 2.675 0 0 1 62.666 4v45.333A2.675 2.675 0 0 1 60 52h-6.667v-3.68z" class="cls-3"/>
            <g id="Group_589">
                <path id="Path_767" d="M60 0H4a4 4 0 0 0-4 4v45.333a4 4 0 0 0 4 4h32v-2.667H4a1.333 1.333 0 0 1-1.333-1.333V4A1.333 1.333 0 0 1 4 2.667h56A1.333 1.333 0 0 1 61.333 4v45.333A1.333 1.333 0 0 1 60 50.666h-2.667v2.667H60a4 4 0 0 0 4-4V4a4 4 0 0 0-4-4z" class="cls-5"/>
                <path id="Path_768" d="M13.333 45.333a1.333 1.333 0 0 0 1.333 1.333H32V44H15.889a8.022 8.022 0 0 0-6.556-6.556V15.889a8.022 8.022 0 0 0 6.556-6.556H48.11a8.022 8.022 0 0 0 6.556 6.556v10.777h2.667v-12A1.333 1.333 0 0 0 56 13.333 5.333 5.333 0 0 1 50.666 8a1.333 1.333 0 0 0-1.333-1.333H14.667A1.333 1.333 0 0 0 13.333 8 5.333 5.333 0 0 1 8 13.333a1.333 1.333 0 0 0-1.333 1.333v24A1.333 1.333 0 0 0 8 40a5.333 5.333 0 0 1 5.333 5.333z" class="cls-5"/>
                <path id="Path_769" d="M58.666 40a12 12 0 1 0-22.4 6 11.759 11.759 0 0 0 2.4 2.933v13.733a1.333 1.333 0 0 0 2.167 1.041l5.833-4.667 5.834 4.667a1.333 1.333 0 0 0 2.167-1.041V48.913a11.9 11.9 0 0 0 4-8.913zm-21.333 0a9.333 9.333 0 0 1 17.5-4.515v.008a9.333 9.333 0 0 1-14.009 11.782 9.113 9.113 0 0 1-2.244-2.609A9.284 9.284 0 0 1 37.333 40zM47.5 56.291a1.333 1.333 0 0 0-1.667 0l-4.5 3.6v-9.16a11.856 11.856 0 0 0 10.667 0v9.159z" class="cls-5"/>
                <path id="Path_770" d="M46.666 20v-5.334a1.333 1.333 0 0 0-1.333-1.333H18.667a1.333 1.333 0 0 0-1.333 1.333V20a1.333 1.333 0 0 0 1.333 1.333h26.666A1.333 1.333 0 0 0 46.666 20zM44 18.666H20V16h24z" class="cls-5"/>
                <path id="Path_771" d="M16 25.333h2.667V28H16v-2.667z" class="cls-5"/>
                <path id="Path_772" d="M21.333 25.333H24V28h-2.667z" class="cls-5"/>
                <path id="Path_773" d="M16 30.666h16v2.667H16v-2.667z" class="cls-5"/>
                <path id="Path_774" d="M46.666 46.666A6.667 6.667 0 1 0 40 40a6.667 6.667 0 0 0 6.666 6.666zm0-10.667a4 4 0 1 1-4 4 4 4 0 0 1 4-3.999z" class="cls-5"/>
                <path id="Path_775" d="M6.667 44h2.667v2.667H6.667z" class="cls-5"/>
                <path id="Path_776" d="M54.666 6.667h2.667v2.666h-2.667z" class="cls-5"/>
                <path id="Path_777" d="M6.667 6.667h2.667v2.666H6.667z" class="cls-5"/>
            </g>
        </g>
    </g>
</svg>
