<svg xmlns="http://www.w3.org/2000/svg" width="64" height="64" viewBox="0 0 64 64">
    <defs>
        <clipPath id="clip-path">
            <path id="Rectangle_305" fill="#fff" stroke="#707070" d="M0 0H64V64H0z" transform="translate(852 176)"/>
        </clipPath>
        <style>
            .cls-3{fill:#fff}.cls-5{fill:#1f3b64}
        </style>
    </defs>
    <g id="Mask_Group_57" clip-path="url(#clip-path)" transform="translate(-852 -176)">
        <g id="contract" transform="translate(852 176)">
            <g id="Group_590">
                <path id="Path_778" d="M56 12h-8a2.675 2.675 0 0 1-2.667-2.667v-8z" class="cls-3"/>
                <path id="Path_779" d="M56 12v48a2.675 2.675 0 0 1-2.667 2.667H10.667A2.675 2.675 0 0 1 8 60V4a2.675 2.675 0 0 1 2.667-2.667h34.666v8A2.675 2.675 0 0 0 48 12z" class="cls-3"/>
                <path id="Path_780" d="M16 22.667h21.333V36H16z" class="cls-3"/>
                <path id="Path_781" d="M45.333 41.653V56l-6.667-5.333L32 56V41.653a10.643 10.643 0 0 0 13.333 0z" class="cls-3"/>
                <circle id="Ellipse_102" cx="5.333" cy="5.333" r="5.333" class="cls-3" transform="translate(33.333 28)"/>
            </g>
            <path id="Path_782" fill="#bdd3dd" d="M45.333 41.653a10.667 10.667 0 1 1 4-8.32 10.667 10.667 0 0 1-4 8.32zM44 33.333a5.333 5.333 0 1 0-5.333 5.333A5.333 5.333 0 0 0 44 33.333z"/>
            <g id="Group_591">
                <path id="Path_783" d="M14.667 8H28v2.667H14.667z" class="cls-5"/>
                <path id="Path_784" d="M14.667 13.333h2.667V16h-2.667z" class="cls-5"/>
                <path id="Path_785" d="M20 13.333h2.667V16H20z" class="cls-5"/>
                <path id="Path_786" d="M56.943 11.057L46.276.391A1.333 1.333 0 0 0 45.333 0H10.667a4 4 0 0 0-4 4v56a4 4 0 0 0 4 4h42.666a4 4 0 0 0 4-4V12a1.333 1.333 0 0 0-.39-.943zM54.667 60a1.333 1.333 0 0 1-1.333 1.333H10.667A1.333 1.333 0 0 1 9.333 60V4a1.333 1.333 0 0 1 1.333-1.333H44v6.666a4 4 0 0 0 4 4h2.667v-2.666H48a1.333 1.333 0 0 1-1.333-1.333V4.552l8 8z" class="cls-5"/>
                <path id="Path_787" d="M38.667 21.333a12.013 12.013 0 0 0-12 12 11.892 11.892 0 0 0 4 8.913V56a1.333 1.333 0 0 0 2.167 1.041l5.833-4.668L44.5 57.04A1.333 1.333 0 0 0 46.667 56V42.247a11.892 11.892 0 0 0 4-8.913 12.013 12.013 0 0 0-12-12zm.833 28.292a1.333 1.333 0 0 0-1.667 0l-4.5 3.6v-9.16a11.856 11.856 0 0 0 10.667 0v9.159zm5-9.012a9.327 9.327 0 1 1 1.455-1.452 9.309 9.309 0 0 1-1.455 1.452z" class="cls-5"/>
                <path id="Path_788" d="M38.667 26.667a6.667 6.667 0 1 0 6.667 6.667 6.667 6.667 0 0 0-6.667-6.667zm0 10.667a4 4 0 1 1 4-4 4 4 0 0 1-4 3.999z" class="cls-5"/>
                <path id="Path_789" d="M16 37.333h6.667v-2.666h-5.334V24h9.333v-2.667H16a1.333 1.333 0 0 0-1.333 1.333V36A1.333 1.333 0 0 0 16 37.333z" class="cls-5"/>
                <path id="Path_790" d="M14.667 41.333h2.667V44h-2.667z" class="cls-5"/>
                <path id="Path_791" d="M20 41.333h5.333V44H20z" class="cls-5"/>
                <path id="Path_792" d="M14.667 46.667h12v2.667h-12v-2.667z" class="cls-5"/>
                <path id="Path_793" d="M14.667 52h12v2.667h-12V52z" class="cls-5"/>
            </g>
        </g>
    </g>
</svg>
