<svg xmlns="http://www.w3.org/2000/svg" width="64" height="64" viewBox="0 0 64 64">
    <defs>
        <clipPath id="clip-path">
            <path id="Rectangle_306" fill="#fff" stroke="#707070" d="M0 0H64V64H0z" transform="translate(1255 176)"/>
        </clipPath>
        <style>
            .cls-5{fill:#1f3b64}
        </style>
    </defs>
    <g id="Mask_Group_60" clip-path="url(#clip-path)" transform="translate(-1255 -176)">
        <g id="people" transform="translate(1255 176)">
            <path id="Path_816" fill="#bdd3dd" d="M46.667 64H1.333V52a8.612 8.612 0 0 1 4-6.667c3.333-2.213 18.667-8 18.667-8v-2.666c-4.653-1.653-8-8.107-8-13.333v-8c0-5.333 5.373-12 12-12h2.667c6.627 0 12 6.667 12 12v8c0 5.227-3.347 11.68-8 13.333v2.667s15.333 5.787 18.667 8a8.612 8.612 0 0 1 4 6.667V64z"/>
            <path id="Path_817" fill="#fff" d="M62.667 4v21.333A2.675 2.675 0 0 1 60 28H44l-5.333 5.333V28h-8A2.675 2.675 0 0 1 28 25.333V4a2.675 2.675 0 0 1 2.667-2.667H60A2.675 2.675 0 0 1 62.667 4z"/>
            <g id="Group_594">
                <path id="Path_818" d="M24.445 33.409c-4.192-1.484-7.112-7.555-7.112-12.076v-8c0-3.379 2.577-7.405 6-9.364L22 1.656C17.751 4.092 14.667 9 14.667 13.333v8c0 5.2 3.033 11.867 8 14.223v.857c-3.333 1.272-15.087 5.82-18.073 7.811A9.923 9.923 0 0 0 0 52v12h2.667V52a7.258 7.258 0 0 1 3.407-5.557c2.533-1.688 13.141-5.881 18.4-7.867a1.333 1.333 0 0 0 .86-1.243v-2.666a1.333 1.333 0 0 0-.888-1.257z" class="cls-5"/>
                <path id="Path_819" d="M54.073 44.224c-2.986-1.991-14.74-6.539-18.073-7.811v-1.746h-2.667v2.667a1.333 1.333 0 0 0 .863 1.248c4.227 1.592 15.772 6.111 18.4 7.867A7.264 7.264 0 0 1 56 52v12h2.667V52a9.923 9.923 0 0 0-4.593-7.776z" class="cls-5"/>
                <path id="Path_820" d="M10.667 52h2.667v12h-2.667z" class="cls-5"/>
                <path id="Path_821" d="M45.333 52H48v12h-2.667z" class="cls-5"/>
                <path id="Path_822" d="M28 52h2.667v2.667H28z" class="cls-5"/>
                <path id="Path_823" d="M33.333 52H36v2.667h-2.667z" class="cls-5"/>
                <path id="Path_824" d="M22.667 52h2.667v2.667h-2.667V52z" class="cls-5"/>
                <path id="Path_825" d="M60 0H30.667a4 4 0 0 0-4 4v21.333a4 4 0 0 0 4 4h6.667v4a1.333 1.333 0 0 0 2.276.943l4.943-4.943H60a4 4 0 0 0 4-4V4a4 4 0 0 0-4-4zm1.333 25.333A1.333 1.333 0 0 1 60 26.667H44a1.334 1.334 0 0 0-.943.391L40 30.115V28a1.333 1.333 0 0 0-1.333-1.333h-8a1.333 1.333 0 0 1-1.333-1.333V4a1.333 1.333 0 0 1 1.333-1.333H60A1.333 1.333 0 0 1 61.333 4z" class="cls-5"/>
                <path id="Path_826" d="M32 5.333h2.667V8H32z" class="cls-5"/>
                <path id="Path_827" d="M56 21.333h2.667V24H56z" class="cls-5"/>
                <path id="Path_828" d="M51.057 7.057l-5.724 5.724-5.724-5.724-1.885 1.886 5.724 5.724-5.724 5.724 1.885 1.885 5.724-5.724 5.724 5.724 1.885-1.885-5.724-5.724 5.724-5.724z" class="cls-5"/>
            </g>
        </g>
    </g>
</svg>
