<svg xmlns="http://www.w3.org/2000/svg" width="48.098" height="64.146" viewBox="0 0 48.098 64.146">
    <defs>
        <style>
            .cls-1{fill:#fff}.cls-2{fill:#bdd3dd}.cls-3{fill:#1f3b64}
        </style>
    </defs>
    <g id="business-and-finance_4_" transform="translate(-64.047)">
        <path id="Path_1326" d="M224.047 448h8.018v8.018h-8.018z" class="cls-1" transform="translate(-139.954 -391.872)"/>
        <path id="Path_1327" d="M232.065 416v4.009h-8.018V416h8.018z" class="cls-2" transform="translate(-139.954 -363.881)"/>
        <path id="Path_1328" d="M176.107 102.731v5a22.674 22.674 0 0 1-26.727 0v-5s0-2.673 4.009-4.009a56.193 56.193 0 0 0 6.682-2.673v-1.8a8.006 8.006 0 0 1-5.346-7.551v-4.013a8.018 8.018 0 1 1 16.036 0v4.009a8.006 8.006 0 0 1-5.346 7.551v1.8a56.2 56.2 0 0 0 6.682 2.673c4.01 1.34 4.01 4.013 4.01 4.013z" class="cls-1" transform="translate(-74.642 -65.312)"/>
        <path id="Path_1329" d="M97.423 10.667a22.712 22.712 0 0 1 13.364 41.08v-5s0-2.673-4.009-4.009a56.191 56.191 0 0 1-6.682-2.673v-1.8a8.006 8.006 0 0 0 5.346-7.551V26.7a8.018 8.018 0 0 0-16.036 0v4.009a8.006 8.006 0 0 0 5.346 7.551v1.8a56.2 56.2 0 0 1-6.682 2.673c-4.009 1.336-4.009 4.009-4.009 4.009v5a22.712 22.712 0 0 1 13.364-41.08z" class="cls-2" transform="translate(-9.321 -9.331)"/>
        <g id="Group_1043" transform="translate(64.047)">
            <path id="Path_1330" d="M88.1 0a24.048 24.048 0 0 0-14.15 43.5 23.752 23.752 0 0 0 12.813 4.56v2.725h-2.67a1.336 1.336 0 0 0-1.336 1.336v2.673h-2.674v2.673h2.673v6.682h2.673v-6.685h5.346v6.682h2.673v-6.682h2.672v-2.673h-2.673v-2.672a1.336 1.336 0 0 0-1.336-1.336h-2.673v-2.726A23.745 23.745 0 0 0 102.25 43.5 24.055 24.055 0 0 0 88.1 0zm2.673 54.791h-5.344v-1.336h5.346zm-14.7-17.337c0-.072.134-1.791 3.1-2.777a57.112 57.112 0 0 0 6.857-2.738 1.336 1.336 0 0 0 .739-1.2v-1.8a1.336 1.336 0 0 0-.893-1.26 6.682 6.682 0 0 1-4.453-6.29v-4.016a6.682 6.682 0 1 1 13.364 0v4.009a6.682 6.682 0 0 1-4.453 6.29 1.336 1.336 0 0 0-.893 1.26v1.8a1.336 1.336 0 0 0 .739 1.2 57.111 57.111 0 0 0 6.857 2.745c2.961.986 3.1 2.7 3.1 2.741v4.288a21.256 21.256 0 0 1-24.055 0v-4.251zm26.727 2.113v-2.149c0-.148-.056-3.655-4.923-5.277a59.8 59.8 0 0 1-5.768-2.252v-.064a9.355 9.355 0 0 0 5.346-8.443v-4.009a9.355 9.355 0 0 0-18.709 0v4.009a9.355 9.355 0 0 0 5.346 8.443v.064a59.73 59.73 0 0 1-5.768 2.252c-4.866 1.622-4.924 5.129-4.924 5.277v2.15a21.382 21.382 0 1 1 30.227-.827q-.4.425-.827.827z" class="cls-3" transform="translate(-64.047)"/>
            <path id="Path_1331" d="M245.38 298.667h2.673v2.673h-2.673z" class="cls-3" transform="translate(-222.662 -261.249)"/>
            <path id="Path_1332" d="M288.047 298.667h2.673v2.673h-2.673z" class="cls-3" transform="translate(-259.983 -261.249)"/>
            <path id="Path_1333" d="M202.713 298.667h2.673v2.673h-2.673z" class="cls-3" transform="translate(-185.34 -261.249)"/>
        </g>
    </g>
</svg>
