<svg xmlns="http://www.w3.org/2000/svg" id="clock" width="44" height="44" viewBox="0 0 44 44">
    <defs>
        <style>
            .cls-3{fill:#1f3b64}
        </style>
    </defs>
    <circle id="Ellipse_170" cx="16.438" cy="16.438" r="16.438" fill="#bdd3dd" transform="translate(5.386 5.386)"/>
    <path id="Path_1290" fill="#fff" d="M31.706 10.667a21.039 21.039 0 1 1-21.039 21.039 21.039 21.039 0 0 1 21.039-21.039zm16.465 21.039a16.465 16.465 0 1 0-16.465 16.465 16.465 16.465 0 0 0 16.465-16.465z" transform="translate(-9.706 -9.706)"/>
    <g id="Group_992">
        <path id="Path_1291" d="M22 0a22 22 0 1 0 22 22A22 22 0 0 0 22 0zm0 42.167A20.167 20.167 0 1 1 42.167 22 20.167 20.167 0 0 1 22 42.167z" class="cls-3"/>
        <path id="Path_1292" d="M70.527 53.333a17.194 17.194 0 1 0 17.195 17.194 17.194 17.194 0 0 0-17.195-17.194zm15.338 18.1a15.294 15.294 0 0 1-3.429 8.819l-2.22-2.219-1.28 1.28 2.269 2.267a15.312 15.312 0 0 1-9.774 4.287v-3.575h-1.81v3.574a15.312 15.312 0 0 1-9.774-4.287l2.267-2.267-1.28-1.28-2.218 2.219a15.294 15.294 0 0 1-3.429-8.819h3.574v-1.81h-3.572a15.294 15.294 0 0 1 3.429-8.822l2.22 2.219 1.28-1.28-2.267-2.259a15.312 15.312 0 0 1 9.772-4.291v3.574h1.81v-3.574a15.312 15.312 0 0 1 9.774 4.287l-2.267 2.262 1.28 1.28 2.22-2.219a15.294 15.294 0 0 1 3.427 8.823h-3.575v1.81z" class="cls-3" transform="translate(-48.527 -48.527)"/>
        <path id="Path_1293" d="M247.256 160h-1.922v8.65a.961.961 0 0 0 .282.68l5.767 5.767 1.359-1.359-5.485-5.485z" class="cls-3" transform="translate(-224.446 -146.574)"/>
    </g>
</svg>
