<svg xmlns="http://www.w3.org/2000/svg" width="67.637" height="64.821" viewBox="0 0 67.637 64.821">
    <defs>
        <style>
            .cls-1{fill:#fff}.cls-3{fill:#1f3b64}
        </style>
    </defs>
    <g id="pay" transform="translate(0 -10.66)">
        <g id="Group_534" transform="translate(8.455 27.806)">
            <circle id="Ellipse_78" cx="4" cy="4" r="4" class="cls-1" transform="translate(42.421 -.235)"/>
            <circle id="Ellipse_79" cx="4" cy="4" r="4" class="cls-1" transform="translate(34.421 -.235)"/>
            <path id="Path_559" d="M64 149.327h8.455v5.636H64z" class="cls-1" transform="translate(-64 -148.155)"/>
            <path id="Path_560" d="M64 266.66h50.728v5.64H64z" class="cls-1" transform="translate(-64 -249.988)"/>
        </g>
        <path id="Path_561" fill="#bdd3dd" d="M59.986 105.857a4.227 4.227 0 1 0 4.227-4.227 4.227 4.227 0 0 0-4.227 4.227 4.227 4.227 0 1 0-4.227 4.227 4.227 4.227 0 0 0 4.227-4.227zm15.5-7.046v39.455a2.827 2.827 0 0 1-2.818 2.818H13.485a2.827 2.827 0 0 1-2.818-2.818V98.811a2.827 2.827 0 0 1 2.818-2.818h59.183a2.827 2.827 0 0 1 2.818 2.818zm-7.046 25.364v-5.637H17.713v5.637zm-42.273-15.5v-5.636h-8.454v5.636z" transform="translate(-9.258 -74.06)"/>
        <circle id="Ellipse_80" cx="15.5" cy="15.5" r="15.5" class="cls-1" transform="translate(8.455 12.069)"/>
        <g id="Group_535" transform="translate(0 10.66)">
            <path id="Path_562" d="M348.985 362.672v-6.462a4.109 4.109 0 0 0-3.985-4.228h-14.333v2.818h14.091a1.289 1.289 0 0 1 1.409 1.409v6.462l-3.231-3.231-1.993 1.992 5.636 5.636a1.409 1.409 0 0 0 1.993 0l5.637-5.636-1.993-1.992z" class="cls-3" transform="translate(-286.984 -306.891)"/>
            <path id="Path_563" d="M256.5 395.269v-6.462l3.231 3.231 1.993-1.993-5.637-5.636a1.409 1.409 0 0 0-1.993 0l-5.637 5.636 1.993 1.993 3.231-3.231v6.462a4.109 4.109 0 0 0 3.987 4.227H272v-2.818h-14.091a1.289 1.289 0 0 1-1.409-1.409z" class="cls-3" transform="translate(-215.636 -334.677)"/>
            <path id="Path_564" d="M2.818 129.009V89.554a1.409 1.409 0 0 1 1.409-1.409v-2.818A4.227 4.227 0 0 0 0 89.554v39.456a4.227 4.227 0 0 0 4.227 4.227h25.364v-2.818H4.227a1.409 1.409 0 0 1-1.409-1.41z" class="cls-3" transform="translate(0 -75.463)"/>
            <path id="Path_565" d="M350.395 85.327h-19.728v2.818h19.728a1.409 1.409 0 0 1 1.409 1.409v35.228h2.818V89.554a4.227 4.227 0 0 0-4.227-4.227z" class="cls-3" transform="translate(-286.984 -75.463)"/>
            <path id="Path_566" d="M352 136.447v2.818a5.6 5.6 0 0 0 4.227-1.947 5.636 5.636 0 1 0 0-7.378 5.6 5.6 0 0 0-4.227-1.948v2.818a2.818 2.818 0 0 1 0 5.637zm8.455-5.636a2.818 2.818 0 1 1-2.818 2.818 2.818 2.818 0 0 1 2.818-2.818z" class="cls-3" transform="translate(-305.499 -112.492)"/>
            <path id="Path_567" d="M54.742 264.448h50.728a1.409 1.409 0 0 0 1.409-1.409V257.4a1.409 1.409 0 0 0-1.409-1.409H81.515v2.818h22.546v2.818h-47.91v-2.818h2.818v-2.818h-4.227a1.409 1.409 0 0 0-1.409 1.409v5.637a1.409 1.409 0 0 0 1.409 1.411z" class="cls-3" transform="translate(-46.287 -223.583)"/>
            <path id="Path_568" d="M53.333 351.993h2.818v2.818h-2.818z" class="cls-3" transform="translate(-46.287 -306.901)"/>
            <path id="Path_569" d="M96 351.993h2.818v2.818H96z" class="cls-3" transform="translate(-83.318 -306.901)"/>
            <path id="Path_570" d="M138.667 351.993h16.909v2.818h-16.909z" class="cls-3" transform="translate(-120.348 -306.901)"/>
            <path id="Path_571" d="M70.242 44.479a16.909 16.909 0 1 0-16.909-16.91 16.909 16.909 0 0 0 16.909 16.91zm0-31a14.091 14.091 0 1 1-14.091 14.09 14.091 14.091 0 0 1 14.091-14.091z" class="cls-3" transform="translate(-46.287 -10.66)"/>
            <path id="Path_572" d="M141.485 80.9h1.409v2.818h2.818V80.9h1.409a2.818 2.818 0 0 0 2.818-2.818v-2.816a2.818 2.818 0 0 0-2.818-2.818h-5.637V69.63h5.637v1.409h2.818V69.63a2.818 2.818 0 0 0-2.818-2.818h-1.409v-2.819h-2.818v2.818h-1.409a2.818 2.818 0 0 0-2.818 2.818v2.818a2.818 2.818 0 0 0 2.818 2.818h5.637v2.818h-5.637v-1.408h-2.818v1.409a2.818 2.818 0 0 0 2.818 2.816z" class="cls-3" transform="translate(-120.348 -56.947)"/>
        </g>
    </g>
</svg>
