<svg xmlns="http://www.w3.org/2000/svg" width="64" height="64" viewBox="0 0 64 64">
    <defs>
        <clipPath id="clip-path">
            <path id="Rectangle_251" fill="#fff" stroke="#707070" d="M0 0H64V64H0z" data-name="Rectangle 251" transform="translate(1631 176)"/>
        </clipPath>
        <style>
            .cls-3{fill:#fff}.cls-4{fill:#bdd3dd}.cls-5{fill:#1f3b64}
        </style>
    </defs>
    <g id="Mask_Group_35" clip-path="url(#clip-path)" data-name="Mask Group 35" transform="translate(-1631 -176)">
        <g id="video-camera" transform="translate(1631 176)">
            <path id="Path_457" d="M32 36l-10.666 5.334V30.668z" class="cls-3" data-name="Path 457"/>
            <g id="Group_514" data-name="Group 514">
                <path id="Path_458" d="M62.666 24v34.667L52 49.334V60a2.674 2.674 0 0 1-2.667 2.667H4A2.675 2.675 0 0 1 1.334 60V22.668A2.675 2.675 0 0 1 4 20h45.333A2.675 2.675 0 0 1 52 22.668v10.666zM21.334 41.334L32 36l-10.666-5.332v10.666z" class="cls-4" data-name="Path 458"/>
                <circle id="Ellipse_70" cx="4" cy="4" r="4" class="cls-4" data-name="Ellipse 70" transform="translate(30.667 6.668)"/>
                <circle id="Ellipse_71" cx="4" cy="4" r="4" class="cls-4" data-name="Ellipse 71" transform="translate(12.001 6.668)"/>
            </g>
            <g id="Group_515" data-name="Group 515">
                <path id="Path_459" d="M34.667 1.335a9.326 9.326 0 1 1-.013 0zm4 9.333a4 4 0 1 0-4 4 4 4 0 0 0 3.999-4z" class="cls-3" data-name="Path 459"/>
                <path id="Path_460" d="M25.334 10.668a9.328 9.328 0 1 1 0-.013v.013zm-5.333 0a4 4 0 1 0-4 4 4 4 0 0 0 3.999-4z" class="cls-3" data-name="Path 460"/>
            </g>
            <g id="Group_516" data-name="Group 516">
                <path id="Path_461" d="M63.216 22.788a1.333 1.333 0 0 0-1.429.212l-8.454 7.4v-7.732a4 4 0 0 0-4-4H44v2.667h5.333a1.333 1.333 0 0 1 1.333 1.333V44h2.667V33.94l8-7v28.794l-8.454-7.4a1.333 1.333 0 0 0-2.212 1V60a1.333 1.333 0 0 1-1.333 1.333H4A1.333 1.333 0 0 1 2.668 60V22.668A1.333 1.333 0 0 1 4 21.335h2.667v-2.667H4a4 4 0 0 0-4 4V60a4 4 0 0 0 4 4h45.333a4 4 0 0 0 4-4v-7.733l8.454 7.4a1.333 1.333 0 0 0 2.212-1V24a1.333 1.333 0 0 0-.783-1.213z" class="cls-5" data-name="Path 461"/>
                <path id="Path_462" d="M21.334 42.667a1.333 1.333 0 0 0 .6-.14L32.6 37.194a1.333 1.333 0 0 0 0-2.387l-10.67-5.333A1.333 1.333 0 0 0 20 30.668v10.666a1.333 1.333 0 0 0 1.334 1.333zm1.333-9.842L29.019 36l-6.352 3.176z" class="cls-5" data-name="Path 462"/>
                <path id="Path_463" d="M16 21.335a10.666 10.666 0 0 0 9.333-5.514 10.666 10.666 0 1 0 0-10.3A10.666 10.666 0 1 0 16 21.335zM34.667 2.669a8 8 0 1 1-8 8 8 8 0 0 1 8-8zM16 2.669a8 8 0 1 1-8 8 8 8 0 0 1 8-8z" class="cls-5" data-name="Path 463"/>
                <path id="Path_464" d="M16 16a5.333 5.333 0 1 0-5.333-5.333A5.333 5.333 0 0 0 16 16zm0-8a2.667 2.667 0 1 1-2.667 2.667A2.667 2.667 0 0 1 16 8z" class="cls-5" data-name="Path 464"/>
                <path id="Path_465" d="M34.667 16a5.333 5.333 0 1 0-5.333-5.333A5.333 5.333 0 0 0 34.667 16zm0-8A2.667 2.667 0 1 1 32 10.668 2.667 2.667 0 0 1 34.667 8z" class="cls-5" data-name="Path 465"/>
                <path id="Path_466" d="M24 56v-2.7l12-.027V50.6l-12 .027V48h-2.666v2.635l-14.669.032.005 2.667 14.664-.034V56H24z" class="cls-5" data-name="Path 466"/>
                <path id="Path_467" d="M38.666 50.667h2.667v2.667h-2.667z" class="cls-5" data-name="Path 467"/>
                <path id="Path_468" d="M44 50.667h2.667v2.667H44z" class="cls-5" data-name="Path 468"/>
            </g>
        </g>
    </g>
</svg>
