<svg xmlns="http://www.w3.org/2000/svg" width="28" height="28" viewBox="0 0 28 28">
    <defs>
        <style>
            .cls-2{fill:#1f3b64}
        </style>
    </defs>
    <g id="Group_1289" transform="translate(-826 -943)">
        <g id="document" transform="translate(826.699 943.699)">
            <path id="Path_1561" d="M2.3 26.813c.3.188-1.16.118 21.484.118a3.16 3.16 0 0 0 3.157-3.156v-2.367a.789.789 0 0 0-.789-.789h-1.84V3.3a3.3 3.3 0 0 0-3.3-3.3H.789A.789.789 0 0 0 0 .789v22.986a3.157 3.157 0 0 0 2.3 3.038zm23.063-3.038a1.58 1.58 0 0 1-1.579 1.578H5.891a3.136 3.136 0 0 0 .424-1.578V22.2h19.05zM1.579 1.578h19.433A1.723 1.723 0 0 1 22.733 3.3v17.32H5.525a.789.789 0 0 0-.789.789v2.326a1.585 1.585 0 0 1-2.7 1.156 1.567 1.567 0 0 1-.462-1.116z" class="cls-2"/>
            <path id="Path_1562" d="M94.443 92.535h12.877a.789.789 0 1 0 0-1.578H94.443a.789.789 0 1 0 0 1.578z" class="cls-2" transform="translate(-88.726 -86.17)"/>
            <path id="Path_1563" d="M94.443 162.5h12.877a.789.789 0 1 0 0-1.578H94.443a.789.789 0 1 0 0 1.578z" class="cls-2" transform="translate(-88.726 -152.456)"/>
            <path id="Path_1564" d="M94.443 232.47h12.877a.789.789 0 1 0 0-1.578H94.443a.789.789 0 1 0 0 1.578z" class="cls-2" transform="translate(-88.726 -218.742)"/>
            <path id="Path_1565" d="M94.443 302.437h12.877a.789.789 0 1 0 0-1.578H94.443a.789.789 0 1 0 0 1.578z" class="cls-2" transform="translate(-88.726 -285.027)"/>
        </g>
    </g>
</svg>
