<svg xmlns="http://www.w3.org/2000/svg" width="28" height="28" viewBox="0 0 28 28">
    <defs>
        <style>
            .cls-2{fill:#1f3b64}
        </style>
    </defs>
    <g id="Group_1294" transform="translate(-1026 -943)">
        <g id="personal-data" transform="translate(987.323 943.427)">
            <path id="Path_1575" d="M61.5 3.3h-.8v-.9A2.4 2.4 0 0 0 58.3 0H47.123a.8.8 0 0 0-.565.234l-5.324 5.325a.8.8 0 0 0-.234.564v15.548a2.4 2.4 0 0 0 2.4 2.4h.8v.8a2.4 2.4 0 0 0 2.4 2.4h14.9a2.4 2.4 0 0 0 2.4-2.4V5.7a2.4 2.4 0 0 0-2.4-2.4zm-15.175-.573v2.6h-2.6zM43.4 22.47a.8.8 0 0 1-.8-.8V6.922h4.526a.8.8 0 0 0 .8-.8V1.6h10.379a.8.8 0 0 1 .8.8v19.271a.8.8 0 0 1-.8.8zm18.9 2.4a.8.8 0 0 1-.8.8H46.591a.8.8 0 0 1-.8-.8v-.8h12.514a2.4 2.4 0 0 0 2.4-2.4V4.9h.8a.8.8 0 0 1 .8.8z" class="cls-2"/>
            <path id="Path_1576" d="M226.405 55.794a2.4 2.4 0 1 0-3.888 0A3.46 3.46 0 0 0 221 58.656v1.065a.8.8 0 0 0 .8.8h5.325a.8.8 0 0 0 .8-.8v-1.065a3.46 3.46 0 0 0-1.517-2.862zm-1.944-2.2a.8.8 0 1 1-.8.8.8.8 0 0 1 .8-.794zm1.864 5.325H222.6v-.266a1.864 1.864 0 1 1 3.727 0z" class="cls-2" transform="translate(-170.416 -49.231)"/>
            <path id="Path_1577" d="M101.8 183.6h3.727a.8.8 0 1 0 0-1.6H101.8a.8.8 0 1 0 0 1.6z" class="cls-2" transform="translate(-56.805 -172.309)"/>
            <path id="Path_1578" d="M113.513 242H101.8a.8.8 0 0 0 0 1.6h11.714a.8.8 0 0 0 0-1.6z" class="cls-2" transform="translate(-56.805 -229.114)"/>
            <path id="Path_1579" d="M113.513 302H101.8a.8.8 0 1 0 0 1.6h11.714a.8.8 0 1 0 0-1.6z" class="cls-2" transform="translate(-56.805 -285.92)"/>
            <path id="Path_1580" d="M113.513 362H101.8a.8.8 0 0 0 0 1.6h11.714a.8.8 0 0 0 0-1.6z" class="cls-2" transform="translate(-56.805 -342.725)"/>
        </g>
    </g>
</svg>
