<svg xmlns="http://www.w3.org/2000/svg" width="34.012" height="34.012" viewBox="0 0 34.012 34.012">
  <g id="Iconly_Light_Chat" data-name="Iconly/Light/Chat" transform="translate(1.512 1.5)">
    <g id="Chat">
      <path id="Stroke_4" data-name="Stroke 4" d="M26.461,26.458A15.51,15.51,0,0,1,8.969,29.565a6.274,6.274,0,0,0-2.2-.617c-1.84.011-4.13,1.795-5.32.606s.6-3.482.6-5.333a6.191,6.191,0,0,0-.606-2.192,15.5,15.5,0,1,1,25.025,4.429Z" transform="translate(0)" fill="none" stroke="#fff" stroke-linecap="round" stroke-linejoin="round" stroke-miterlimit="10" stroke-width="3"/>
      <path id="Stroke_11" data-name="Stroke 11" d="M.5.5H.509" transform="translate(21.111 15.64)" fill="none" stroke="#fff" stroke-linecap="round" stroke-linejoin="round" stroke-miterlimit="10" stroke-width="3"/>
      <path id="Stroke_13" data-name="Stroke 13" d="M.5.5H.509" transform="translate(14.897 15.64)" fill="none" stroke="#fff" stroke-linecap="round" stroke-linejoin="round" stroke-miterlimit="10" stroke-width="3"/>
      <path id="Stroke_15" data-name="Stroke 15" d="M.5.5H.509" transform="translate(8.683 15.64)" fill="none" stroke="#fff" stroke-linecap="round" stroke-linejoin="round" stroke-miterlimit="10" stroke-width="3"/>
    </g>
  </g>
</svg>
