<svg xmlns="http://www.w3.org/2000/svg" width="28" height="28" viewBox="0 0 28 28">
    <defs>
        <style>
            .cls-2{fill:#1f3b64}
        </style>
    </defs>
    <g id="Group_1290" transform="translate(-866 -943)">
        <g id="employment" transform="translate(866.463 943.463)">
            <path id="Path_1566" d="M25.76 15.653h-2.385c.005-.079 0 .063 0-1.293a1.816 1.816 0 0 0-1.814-1.814h-1.3V5.498a.777.777 0 0 0-.225-.605L15.373.227a.783.783 0 0 0-.55-.227H.777A.777.777 0 0 0 0 .777V25.76a.777.777 0 0 0 .777.777H24.2a2.335 2.335 0 0 0 2.337-2.337v-7.77a.777.777 0 0 0-.777-.777zm-.777 3.976l-4.685.586a.777.777 0 0 0-1.541 0l-4.657-.587v-2.42h10.882zm-3.16-5.269v1.293h-4.67c.006-.08 0 .06 0-1.317a.236.236 0 0 1 .236-.236h4.17a.259.259 0 0 1 .259.259zM15.6 2.654l2.01 2.01H15.6zM1.555 1.555h12.491v3.887a.777.777 0 0 0 .777.777h3.887v6.326h-1.316a1.792 1.792 0 0 0-1.79 1.79v1.317h-2.286a.777.777 0 0 0-.777.777c.046 8.094-.1 7.882.134 8.552H1.555zM24.2 24.982h-9.327a.778.778 0 0 1-.773-.782v-3.01l4.654.582v.093a.777.777 0 0 0 1.555 0v-.089l4.678-.585V24.2a.778.778 0 0 1-.787.782z" class="cls-2"/>
            <path id="Path_1567" d="M152.832 95.715a2.332 2.332 0 1 0-2.332-2.332 2.335 2.335 0 0 0 2.332 2.332zm0-3.11a.777.777 0 1 1-.777.777.778.778 0 0 1 .777-.782z" class="cls-2" transform="translate(-142.7 -86.331)"/>
            <path id="Path_1568" d="M121.277 186.19h6.22a.777.777 0 0 0 .777-.777 3.887 3.887 0 1 0-7.775 0 .777.777 0 0 0 .778.777zm5.309-1.555h-4.4a2.335 2.335 0 0 1 4.4 0z" class="cls-2" transform="translate(-114.254 -172.117)"/>
            <path id="Path_1569" d="M110.644 302h-3.891a.777.777 0 1 0 0 1.555h3.891a.777.777 0 1 0 0-1.555z" class="cls-2" transform="translate(-100.482 -286.347)"/>
            <path id="Path_1570" d="M110.644 361h-3.891a.777.777 0 1 0 0 1.555h3.891a.777.777 0 1 0 0-1.555z" class="cls-2" transform="translate(-100.482 -342.289)"/>
            <path id="Path_1571" d="M110.644 420.95h-3.891a.777.777 0 0 0 0 1.555h3.891a.777.777 0 0 0 0-1.555z" class="cls-2" transform="translate(-100.482 -399.132)"/>
            <circle id="Ellipse_225" cx=".775" cy=".775" r=".775" class="cls-2" transform="translate(3.13 15.603)"/>
            <circle id="Ellipse_226" cx=".775" cy=".775" r=".775" class="cls-2" transform="translate(3.13 18.713)"/>
            <circle id="Ellipse_227" cx=".775" cy=".775" r=".775" class="cls-2" transform="translate(3.13 21.821)"/>
        </g>
    </g>
</svg>
