<svg xmlns="http://www.w3.org/2000/svg" width="28" height="28" viewBox="0 0 28 28">
    <defs>
        <clipPath id="clip-path">
            <path id="Rectangle_581" fill="#1f3b64" stroke="#707070" d="M0 0H28V28H0z" transform="translate(24.573 409.573)"/>
        </clipPath>
        <style>
            .cls-4{fill:#1f3b64}
        </style>
    </defs>
    <g id="Group_1295" transform="translate(-1066 -943)">
        <g id="Mask_Group_90" clip-path="url(#clip-path)" transform="translate(1041.427 533.427)">
            <g id="money_1_" transform="translate(25.802 410)">
                <path id="Path_1581" d="M23.953 20.948v-4.113a10.438 10.438 0 0 0-6.883-9.8 2.4 2.4 0 0 0-.655-3.456A3.991 3.991 0 0 0 17.538.8a.8.8 0 0 0-.8-.8h-6.413a.8.8 0 0 0-.8.8 3.991 3.991 0 0 0 1.125 2.777 2.4 2.4 0 0 0-.655 3.456 10.438 10.438 0 0 0-6.883 9.8v4.113a3.2 3.2 0 0 0 .8 6.307h19.242a3.2 3.2 0 0 0 .8-6.307zM15.8 1.6a2.409 2.409 0 0 1-4.546 0zm-3.872 4.815a.805.805 0 0 1 0-1.61h3.207a.805.805 0 0 1 0 1.61zm11.226 19.244H3.91a1.607 1.607 0 1 1 0-3.214.8.8 0 0 0 .8-.8v-4.81a8.823 8.823 0 0 1 17.647 0v4.811a.8.8 0 0 0 .8.8 1.607 1.607 0 1 1 0 3.214z" class="cls-4" transform="translate(-.706)"/>
                <path id="Path_1582" d="M12.287 13.085h1.6a.8.8 0 1 0 0-1.6h-.805v-.805a.8.8 0 1 0-1.6 0v.942a2.4 2.4 0 0 0 .8 4.667.805.805 0 1 1 0 1.61h-1.6a.8.8 0 1 0 0 1.6h.805v.805a.8.8 0 1 0 1.6 0v-.942a2.4 2.4 0 0 0-.8-4.667.805.805 0 1 1 0-1.61z" class="cls-4" transform="translate(.539 1.341)"/>
            </g>
        </g>
    </g>
</svg>
