<svg xmlns="http://www.w3.org/2000/svg" width="28" height="28" viewBox="0 0 28 28">
    <defs>
        <style>
            .cls-2{fill:#1f3b64}
        </style>
    </defs>
    <g id="Group_1292" transform="translate(-946 -943)">
        <g id="image" transform="translate(946.463 943.463)">
            <path id="Path_1573" d="M23.012 3.948A13.48 13.48 0 0 0 3.948 23.013 13.48 13.48 0 0 0 23.012 3.948zM5.065 5.065a11.9 11.9 0 0 1 20.316 8.415 11.994 11.994 0 0 1-.281 2.58l-4.03-3.524a2.79 2.79 0 0 0-3.64-.042l-3.33 2.782a1.218 1.218 0 0 1-1.444.091l-2.141-1.372a2.787 2.787 0 0 0-2.941-.052L2.153 17.15A11.935 11.935 0 0 1 5.065 5.065zM21.895 21.9a11.917 11.917 0 0 1-19.148-3.26l5.63-3.34a1.216 1.216 0 0 1 1.283.023L11.8 16.7a2.791 2.791 0 0 0 3.308-.207l3.334-2.781a1.217 1.217 0 0 1 1.588.018l4.575 4a11.866 11.866 0 0 1-2.71 4.172zm0 0" class="cls-2"/>
            <path id="Path_1574" d="M103.364 111.728a3.083 3.083 0 1 0-3.083-3.083 3.086 3.086 0 0 0 3.083 3.083zm0-4.586a1.5 1.5 0 1 1-1.5 1.5 1.5 1.5 0 0 1 1.5-1.5zm0 0" class="cls-2" transform="translate(-95.001 -100.003)"/>
        </g>
    </g>
</svg>
