<svg id="Iconly_Light-outline_Logout" data-name="Iconly/Light-outline/Logout" xmlns="http://www.w3.org/2000/svg" width="24" height="24" viewBox="0 0 24 24">
  <g id="Logout" transform="translate(2 2)">
    <path id="Logout-2" data-name="Logout" d="M4.434,20A4.435,4.435,0,0,1,0,15.773l0-.209V4.435A4.436,4.436,0,0,1,4.226,0l.209,0H9.309a4.435,4.435,0,0,1,4.431,4.226l0,.209v.932a.75.75,0,0,1-1.493.1l-.007-.1V4.435A2.935,2.935,0,0,0,9.482,1.5l-.173,0H4.434A2.935,2.935,0,0,0,1.5,4.262l0,.173V15.565A2.935,2.935,0,0,0,4.261,18.5l.173.005H9.319a2.925,2.925,0,0,0,2.92-2.752l0-.172v-.943a.751.751,0,0,1,1.494-.1l.006.1v.943A4.426,4.426,0,0,1,9.534,20l-.215,0Zm11.894-6.555a.75.75,0,0,1-.07-.977l.072-.085,1.64-1.634H7.746a.75.75,0,0,1-.1-1.493l.1-.006H17.972L16.33,7.617a.75.75,0,0,1-.076-.977l.073-.085a.751.751,0,0,1,.976-.075l.084.072,2.929,2.915a.747.747,0,0,1,.214.436h0l0,.017v0l0,.018h0q0,.028,0,.057h0v0s0,.01,0,.015v0s0,.008,0,.012v.047a.746.746,0,0,1-.073.252v0l-.006.013-.006.01,0,0-.008.014h0l-.008.013h0l-.009.014h0l-.008.012v0l-.007.011,0,0-.007.009,0,0,0,0h0a.754.754,0,0,1-.09.1l-2.911,2.9a.749.749,0,0,1-1.06,0Z" transform="translate(0.022 0.022)" fill="#200e32"/>
  </g>
</svg>
