<svg id="Iconly_Light_Wallet" data-name="Iconly/Light/Wallet" xmlns="http://www.w3.org/2000/svg" width="42" height="42" viewBox="0 0 42 42">
  <g id="Wallet" transform="translate(4.375 5.25)">
    <path id="Stroke_1" data-name="Stroke 1" d="M11.8,9.419H4.711A4.71,4.71,0,1,1,4.711,0H11.8" transform="translate(21.697 10.523)" fill="none" stroke="#fff" stroke-linecap="round" stroke-linejoin="round" stroke-miterlimit="10" stroke-width="3"/>
    <path id="Stroke_3" data-name="Stroke 3" d="M.845.456H.3" transform="translate(26.365 14.669)" fill="none" stroke="#fff" stroke-linecap="round" stroke-linejoin="round" stroke-miterlimit="10" stroke-width="3"/>
    <path id="Stroke_5" data-name="Stroke 5" d="M9.183,0H24.309a9.184,9.184,0,0,1,9.183,9.183v12.56a9.184,9.184,0,0,1-9.183,9.183H9.183A9.184,9.184,0,0,1,0,21.743V9.183A9.184,9.184,0,0,1,9.183,0Z" transform="translate(0 0)" fill="none" stroke="#fff" stroke-linecap="round" stroke-linejoin="round" stroke-miterlimit="10" stroke-width="3"/>
    <path id="Stroke_7" data-name="Stroke 7" d="M0,.456H9.448" transform="translate(7.937 7.486)" fill="none" stroke="#fff" stroke-linecap="round" stroke-linejoin="round" stroke-miterlimit="10" stroke-width="3"/>
  </g>
</svg>
