<svg id="Iconly_Light-outline_Chart" data-name="Iconly/Light-outline/Chart" xmlns="http://www.w3.org/2000/svg" width="24" height="24" viewBox="0 0 24 24">
  <g id="Chart" transform="translate(2 2)">
    <path id="Chart-2" data-name="Chart" d="M5.641,20a5.478,5.478,0,0,1-4.092-1.642A6.024,6.024,0,0,1,0,14.107V5.893A6.018,6.018,0,0,1,1.552,1.644,5.475,5.475,0,0,1,5.641,0h8.717a5.478,5.478,0,0,1,4.092,1.643A6.024,6.024,0,0,1,20,5.893v8.213a6.024,6.024,0,0,1-1.549,4.251A5.478,5.478,0,0,1,14.359,20ZM1.395,5.893v8.213c0,2.732,1.667,4.5,4.246,4.5h8.717c2.579,0,4.246-1.766,4.246-4.5V5.893c0-2.732-1.667-4.5-4.246-4.5H5.641C3.062,1.395,1.395,3.161,1.395,5.893ZM13.614,14.8l-.006-.095V11.7A.7.7,0,0,1,15,11.6L15,11.7v3.01a.7.7,0,0,1-1.389.095Zm-4.271,0-.006-.095V5.274a.7.7,0,0,1,1.39-.1l.006.1v9.435a.7.7,0,0,1-1.39.095ZM5,14.8,5,14.709V8.327a.7.7,0,0,1,1.389-.095l.006.095v6.382A.7.7,0,0,1,5,14.8Z" fill="#200e32"/>
  </g>
</svg>
