<svg id="Iconly_Light_Video" data-name="Iconly/Light/Video" xmlns="http://www.w3.org/2000/svg" width="42" height="42" viewBox="0 0 42 42">
  <g id="Video" transform="translate(4.025 8.75)">
    <path id="Stroke_1" data-name="Stroke 1" d="M24.494,18.442A5.907,5.907,0,0,1,18.715,24.5c-.245.01-12.214-.014-12.214-.014A5.959,5.959,0,0,1,.02,19.156C0,18.918.006,6.076.006,6.076A5.911,5.911,0,0,1,5.778.007c.249-.012,12.2.01,12.2.01a5.987,5.987,0,0,1,6.5,5.362C24.5,5.611,24.494,18.442,24.494,18.442Z" transform="translate(0 0)" fill="none" stroke="#fff" stroke-linecap="round" stroke-linejoin="round" stroke-miterlimit="10" stroke-width="3"/>
    <path id="Stroke_3" data-name="Stroke 3" d="M0,5.215,5.763.5A2.184,2.184,0,0,1,9.331,2.191L9.31,15.051a2.184,2.184,0,0,1-3.57,1.684L0,12.019" transform="translate(24.5 3.5)" fill="none" stroke="#fff" stroke-linecap="round" stroke-linejoin="round" stroke-miterlimit="10" stroke-width="3"/>
  </g>
</svg>
