<svg xmlns="http://www.w3.org/2000/svg" width="24" height="24" viewBox="0 0 24 24">
    <defs>
        <clipPath id="clip-path">
            <path id="Rectangle_326" fill="#fff" stroke="#707070" d="M0 0H24V24H0z" data-name="Rectangle 326" transform="translate(1188 1871)"/>
        </clipPath>
        <style>
            .cls-3{fill:#818894}
        </style>
    </defs>
    <g id="Mask_Group_69" clip-path="url(#clip-path)" data-name="Mask Group 69" transform="translate(-1188 -1871)">
        <g id="online-class_2_" data-name="online-class (2)" transform="translate(1188 1871)">
            <path id="Path_906" d="M22.078 12.319a2.112 2.112 0 0 0 1.922-2.1V3.656a2.112 2.112 0 0 0-2.109-2.109h-6.985A2.112 2.112 0 0 0 12.8 3.656v2.766H4.031a2.112 2.112 0 0 0-2.109 2.109v8.438a2.1 2.1 0 0 0 .121.7h-.777A1.267 1.267 0 0 0 0 18.938a3.52 3.52 0 0 0 3.516 3.516h16.968A3.52 3.52 0 0 0 24 18.938a1.267 1.267 0 0 0-1.266-1.266h-.777a2.1 2.1 0 0 0 .121-.7zM14.2 3.656a.7.7 0 0 1 .7-.7h6.984a.7.7 0 0 1 .7.7v6.562a.7.7 0 0 1-.7.7h-6.509a.7.7 0 0 0-.373.107l-1.418.886.589-1.963a.7.7 0 0 0 .03-.2zm6.281 17.391H3.516a2.112 2.112 0 0 1-2.1-1.969h21.173a2.112 2.112 0 0 1-2.105 1.969zM6.7 12.375a.8.8 0 1 1 .8.8.8.8 0 0 1-.8-.8zm-.375 3c0-.424.548-.8 1.172-.8a1.435 1.435 0 0 1 .885.287.692.692 0 0 1 .287.51v2.3H6.328zm3.75 2.3v-2.3a2.074 2.074 0 0 0-.815-1.608l-.036-.027a2.2 2.2 0 1 0-3.455 0 2.073 2.073 0 0 0-.851 1.634v2.3h-.887a.7.7 0 0 1-.7-.7V8.531a.7.7 0 0 1 .7-.7H12.8v1.816l-.559 1.864a1.4 1.4 0 0 0 2.092 1.6l1.247-.779h5.1v4.641a.7.7 0 0 1-.7.7z" class="cls-3" data-name="Path 906"/>
            <path id="Path_907" d="M19.125 7.922h-1.5a.7.7 0 0 0 0 1.406h1.5a.7.7 0 0 0 0-1.406z" class="cls-3" data-name="Path 907"/>
            <path id="Path_908" d="M16.5 5.953h3.75a.7.7 0 0 0 0-1.406H16.5a.7.7 0 0 0 0 1.406z" class="cls-3" data-name="Path 908"/>
        </g>
    </g>
</svg>
