<svg xmlns="http://www.w3.org/2000/svg" width="28" height="28" viewBox="0 0 28 28">
    <g>
        <g>
            <path fill="#1f3b64" d="M27.034 13.463a12.492 12.492 0 0 0-9.022-11.379v-.223A1.863 1.863 0 0 0 16.152 0h-3.19A1.863 1.863 0 0 0 11.1 1.861v.223a12.492 12.492 0 0 0-9.02 11.379A1.863 1.863 0 0 0 1 15.152v1.7a.8.8 0 0 0 .545.757 43 43 0 0 0 5.835 1.506v2.58a.8.8 0 0 0 .8.8h1.043a5.785 5.785 0 0 0 .6 1.029l-.524.908a.8.8 0 0 0 .292 1.089l2.762 1.595a.8.8 0 0 0 1.089-.292l.522-.9a5.915 5.915 0 0 0 1.193 0l.522.9a.8.8 0 0 0 1.089.292l2.762-1.595a.8.8 0 0 0 .292-1.089l-.524-.908a5.783 5.783 0 0 0 .6-1.029h1.046a.8.8 0 0 0 .8-.8v-2.58a43.006 43.006 0 0 0 5.834-1.505.8.8 0 0 0 .545-.757v-1.7a1.863 1.863 0 0 0-1.08-1.688zm-9.022-9.711a10.936 10.936 0 0 1 1.595.672v3.019h-1.595zm-8.506.672a10.93 10.93 0 0 1 1.594-.672v3.691H9.506zM7.911 5.436v2.8a.8.8 0 0 0 .8.8H11.9a.8.8 0 0 0 .8-.8V1.861a.266.266 0 0 1 .266-.266h3.19a.266.266 0 0 1 .266.266V8.24a.8.8 0 0 0 .8.8H20.4a.8.8 0 0 0 .8-.8v-2.8a10.839 10.839 0 0 1 4.224 7.855H3.687a10.839 10.839 0 0 1 4.224-7.859zM20.139 20.9h-.793a.8.8 0 0 0-.757.546 4.221 4.221 0 0 1-.855 1.475.8.8 0 0 0-.094.928l.4.689-1.381.8-.395-.683a.8.8 0 0 0-.85-.383 4.319 4.319 0 0 1-1.712 0 .8.8 0 0 0-.85.383l-.395.683-1.381-.8.4-.689a.8.8 0 0 0-.094-.928 4.221 4.221 0 0 1-.855-1.475.8.8 0 0 0-.757-.546h-.795v-1.525q1.347.193 2.692.293a2.773 2.773 0 0 0-.034.431 2.924 2.924 0 0 0 5.848 0 2.773 2.773 0 0 0-.034-.431q1.345-.1 2.692-.293zm-6.911-.8a1.2 1.2 0 0 1 .051-.344q.64.021 1.278.021t1.278-.021a1.2 1.2 0 0 1 .051.344 1.329 1.329 0 0 1-2.658 0zm13.291-3.826a38.664 38.664 0 0 1-23.924 0v-1.122a.266.266 0 0 1 .266-.266h23.392a.266.266 0 0 1 .266.266z" transform="translate(-906 -943) translate(905.512 943.463)"/>
        </g>
    </g>
</svg>
