<?xml version="1.0" encoding="UTF-8"?>
<svg xmlns="http://www.w3.org/2000/svg" xmlns:xlink="http://www.w3.org/1999/xlink" width="28pt" height="28pt" viewBox="0 0 28 28" version="1.1">
<g id="surface1">
<path style=" stroke:none;fill-rule:nonzero;fill:rgb(12.156863%,23.137255%,39.215686%);fill-opacity:1;" d="M 27.179688 19.46875 L 27.125 19.46875 L 27.125 3.882812 C 27.125 2.828125 26.265625 1.96875 25.210938 1.96875 L 2.789062 1.96875 C 1.734375 1.96875 0.875 2.828125 0.875 3.882812 L 0.875 19.46875 L 0.820312 19.46875 C 0.367188 19.46875 0 19.835938 0 20.289062 L 0 21.929688 C 0 24.191406 1.839844 26.03125 4.101562 26.03125 L 23.898438 26.03125 C 26.160156 26.03125 28 24.191406 28 21.929688 L 28 20.289062 C 28 19.835938 27.632812 19.46875 27.179688 19.46875 Z M 2.515625 3.882812 C 2.515625 3.730469 2.636719 3.609375 2.789062 3.609375 L 25.210938 3.609375 C 25.363281 3.609375 25.484375 3.730469 25.484375 3.882812 L 25.484375 19.46875 L 18.921875 19.46875 C 18.570312 19.46875 18.253906 19.695312 18.144531 20.03125 L 17.785156 21.109375 L 10.214844 21.109375 L 9.855469 20.03125 C 9.746094 19.695312 9.429688 19.46875 9.078125 19.46875 L 2.515625 19.46875 Z M 26.359375 21.929688 C 26.359375 23.285156 25.253906 24.390625 23.898438 24.390625 L 4.101562 24.390625 C 2.746094 24.390625 1.640625 23.285156 1.640625 21.929688 L 1.640625 21.109375 L 8.488281 21.109375 L 8.847656 22.1875 C 8.957031 22.523438 9.273438 22.75 9.625 22.75 L 18.375 22.75 C 18.726562 22.75 19.042969 22.523438 19.152344 22.1875 L 19.511719 21.109375 L 26.359375 21.109375 Z M 26.359375 21.929688 "/>
<path style=" stroke:none;fill-rule:nonzero;fill:rgb(12.156863%,23.137255%,39.215686%);fill-opacity:1;" d="M 5.796875 6.070312 C 5.796875 6.523438 5.429688 6.890625 4.976562 6.890625 C 4.523438 6.890625 4.15625 6.523438 4.15625 6.070312 C 4.15625 5.617188 4.523438 5.25 4.976562 5.25 C 5.429688 5.25 5.796875 5.617188 5.796875 6.070312 Z M 5.796875 6.070312 "/>
<path style=" stroke:none;fill-rule:nonzero;fill:rgb(12.156863%,23.137255%,39.215686%);fill-opacity:1;" d="M 18.921875 15.640625 L 18.921875 15.328125 L 22.109375 16.921875 C 22.65625 17.195312 23.296875 16.796875 23.296875 16.1875 L 23.296875 9.078125 C 23.296875 8.46875 22.65625 8.070312 22.109375 8.34375 L 18.921875 9.9375 L 18.921875 9.625 C 18.921875 8.570312 18.0625 7.710938 17.007812 7.710938 L 7.710938 7.710938 C 6.65625 7.710938 5.796875 8.570312 5.796875 9.625 L 5.796875 15.640625 C 5.796875 16.695312 6.65625 17.554688 7.710938 17.554688 L 17.007812 17.554688 C 18.0625 17.554688 18.921875 16.695312 18.921875 15.640625 Z M 21.65625 10.40625 L 21.65625 14.859375 L 18.921875 13.492188 L 18.921875 11.773438 Z M 7.4375 15.640625 L 7.4375 9.625 C 7.4375 9.472656 7.558594 9.351562 7.710938 9.351562 L 17.007812 9.351562 C 17.160156 9.351562 17.28125 9.472656 17.28125 9.625 L 17.28125 15.640625 C 17.28125 15.792969 17.160156 15.914062 17.007812 15.914062 L 7.710938 15.914062 C 7.558594 15.914062 7.4375 15.792969 7.4375 15.640625 Z M 7.4375 15.640625 "/>
<path style=" stroke:none;fill-rule:nonzero;fill:rgb(12.156863%,23.137255%,39.215686%);fill-opacity:1;" d="M 11.539062 10.992188 L 9.898438 10.992188 C 9.445312 10.992188 9.078125 11.359375 9.078125 11.8125 C 9.078125 12.265625 9.445312 12.632812 9.898438 12.632812 L 11.539062 12.632812 C 11.992188 12.632812 12.359375 12.265625 12.359375 11.8125 C 12.359375 11.359375 11.992188 10.992188 11.539062 10.992188 Z M 11.539062 10.992188 "/>
</g>
</svg>
