<svg xmlns="http://www.w3.org/2000/svg" width="50.524" height="50.524" viewBox="0 0 50.524 50.524">
    <defs>
        <style>
            .cls-1{fill:#fff}
        </style>
    </defs>
    <g id="course" transform="translate(-1 -1)">
        <path id="Path_127" d="M36.964 22.928A8.964 8.964 0 1 0 28 13.964a8.975 8.975 0 0 0 8.964 8.964zm0-16.3a7.334 7.334 0 1 1-7.334 7.334 7.343 7.343 0 0 1 7.334-7.332z" class="cls-1" data-name="Path 127" transform="translate(-4.998 -.74)"/>
        <path id="Path_128" d="M34 10.382v9.156l9.156-4.578zm1.63 2.637l3.882 1.941-3.882 1.94z" class="cls-1" data-name="Path 128" transform="translate(-6.108 -1.737)"/>
        <path id="Path_129" d="M47.449 1H16.483a4.079 4.079 0 0 0-4.075 4.075v15.9l-8.9 4.851a1.627 1.627 0 0 0-.7 2.185l.4.776a2.422 2.422 0 0 0-.573 1.552v4.307A3.744 3.744 0 0 0 1 37.671a2.445 2.445 0 0 0 4.889 0 3.744 3.744 0 0 0-1.63-3.027v-4.308a.839.839 0 0 1 .021-.17 1.644 1.644 0 0 0 .209.09 1.6 1.6 0 0 0 .5.079 1.665 1.665 0 0 0 .76-.188l.47-.257 1.5 3.018.63-.151.2-.051a5.682 5.682 0 0 0 2.251 3.136 8.972 8.972 0 0 0-5.725 8.348v7.334h15.483v-4.346l.081.108a6.519 6.519 0 0 0 10.431 0l2.73-3.645a3.055 3.055 0 0 0 .607-1.82v-.3a3.026 3.026 0 0 0-1.63-2.674v-3.621h14.672a4.079 4.079 0 0 0 4.075-4.075V5.075A4.079 4.079 0 0 0 47.449 1zM14.038 5.075a2.448 2.448 0 0 1 2.445-2.445h30.966a2.448 2.448 0 0 1 2.445 2.445v18.742H17.569l-.046-.092.522-.284a1.627 1.627 0 0 0 .7-2.185l-.735-1.442a1.61 1.61 0 0 0-.947-.808 1.628 1.628 0 0 0-1.256.11l-1.774.967zM3.445 38.485a.816.816 0 0 1-.815-.815c0-.668.554-1.594.812-1.63.263.036.817.962.817 1.63a.816.816 0 0 1-.814.815zm1.55-9.776l-.72-1.446 12.289-6.709L17.3 22zm2.653.4l8.444-4.6 1.01 2.028a25.247 25.247 0 0 1-3.981 2.825 24.759 24.759 0 0 1-4.527 1.652zm2.478 3.157a22.821 22.821 0 0 0 3.752-1.466 23.035 23.035 0 0 0 3.306-2.232 4.07 4.07 0 1 1-7.059 3.7zm22.655 9.554a1.419 1.419 0 0 1-.281.843l-2.734 3.646a4.891 4.891 0 0 1-7.823 0l-3.178-4.237-1.3.977L18.928 45v4.889H6.7v-5.7a7.343 7.343 0 0 1 7.334-7.334H15a8.3 8.3 0 0 1 6.8 3.538L25.022 45h1.621l3.657-4.379a1.4 1.4 0 0 1 2.485.9zm-1.63-3.31a3.012 3.012 0 0 0-2.107 1.068l-3.164 3.8-2.75-3.916c-.04-.057-.087-.106-.128-.161V28.707h8.149zm16.3-4.914h-14.67v-3.26h15.483v-1.63H32.781v-1.63H21.373v10.48a9.939 9.939 0 0 0-3.758-1.967 5.681 5.681 0 0 0 .825-8.054l.218-.191.462-.414-.739-1.484h31.513v5.7a2.448 2.448 0 0 1-2.445 2.454z" class="cls-1" data-name="Path 129"/>
        <path id="Path_130" d="M30 41h4.889v1.63H30z" class="cls-1" data-name="Path 130" transform="translate(-5.368 -7.404)"/>
        <path id="Path_131" d="M30 45h3.26v1.63H30z" class="cls-1" data-name="Path 131" transform="translate(-5.368 -8.144)"/>
        <path id="Path_132" d="M30 37h4.889v1.63H30z" class="cls-1" data-name="Path 132" transform="translate(-5.368 -6.664)"/>
        <path id="Path_133" d="M19 13h1.63v1.63H19z" class="cls-1" data-name="Path 133" transform="translate(-3.332 -2.221)"/>
        <path id="Path_134" d="M57 25h1.63v1.63H57z" class="cls-1" data-name="Path 134" transform="translate(-10.365 -4.442)"/>
        <path id="Path_135" d="M57 21h1.63v1.63H57z" class="cls-1" data-name="Path 135" transform="translate(-10.365 -3.702)"/>
        <path id="Path_136" d="M57 17h1.63v1.63H57z" class="cls-1" data-name="Path 136" transform="translate(-10.365 -2.962)"/>
        <path id="Path_137" d="M20.63 6.63h6.519V5H20.63A1.631 1.631 0 0 0 19 6.63v3.26h1.63z" class="cls-1" data-name="Path 137" transform="translate(-3.332 -.74)"/>
    </g>
</svg>
