<svg xmlns="http://www.w3.org/2000/svg" width="41.075" height="53.516" viewBox="0 0 41.075 53.516">
    <g id="student" transform="translate(-59.449)">
        <g id="Group_158" data-name="Group 158" transform="translate(59.449)">
            <path id="Path_126" fill="#fff" d="M97.054 42.892l-9.924-5.958v-2.77a14.118 14.118 0 0 0 2.54-5.422 2.526 2.526 0 0 1 .681-1.292 4.222 4.222 0 0 0 1.245-3.005V21.27a4.269 4.269 0 0 0-.449-1.9l-.186-.37a2.472 2.472 0 0 1-.26-1.1v-5.743l6.858-2.5a1.781 1.781 0 0 0 0-3.352L80.609.11a1.819 1.819 0 0 0-1.245 0L62.414 6.3a1.771 1.771 0 0 0-1.179 1.676v6.25a.893.893 0 1 0 1.786 0V9.874l6.25 2.283V17.9a2.472 2.472 0 0 1-.26 1.1l-.184.368a4.269 4.269 0 0 0-.449 1.9v3.174a4.224 4.224 0 0 0 1.247 3.007 2.524 2.524 0 0 1 .679 1.29 14.065 14.065 0 0 0 2.539 5.416v2.78l-9.921 5.956a7.188 7.188 0 0 0-3.468 6.123v3.607a.893.893 0 0 0 .893.893h39.284a.893.893 0 0 0 .893-.893v-3.605a7.188 7.188 0 0 0-3.47-6.124zm-8.432-2.979l-4.905 2.677-2.167-2.167 4.628-1.984c.013.008.023.02.037.028zm-7.011 3.1l-1.18 1.577h-.891l-1.179-1.58 1.625-1.625zM63.027 7.978L80 1.788l16.96 6.181-.013.006-16.97 6.191zm25.889 4.831v3.5l-7.132 2.921a4.72 4.72 0 0 1-3.6 0l-7.132-2.921v-3.5l8.307 3.034a1.819 1.819 0 0 0 1.245 0zM72.054 28.387a4.3 4.3 0 0 0-1.169-2.2 2.45 2.45 0 0 1-.722-1.743V21.27a2.472 2.472 0 0 1 .26-1.1l.184-.368a4.262 4.262 0 0 0 .43-1.572l6.474 2.652a6.492 6.492 0 0 0 4.949 0l6.474-2.652a4.265 4.265 0 0 0 .429 1.572l.184.368a2.472 2.472 0 0 1 .26 1.1v3.174a2.451 2.451 0 0 1-.723 1.744 4.3 4.3 0 0 0-1.167 2.2 12.483 12.483 0 0 1-2.242 4.738 1.786 1.786 0 0 0-.333 1.032v2.7l-5.358 2.3-5.358-2.3v-2.7a1.794 1.794 0 0 0-.34-1.042 12.464 12.464 0 0 1-2.232-4.729zm1.693 10.088c.017-.01.029-.025.046-.035l4.63 1.984-2.167 2.166-4.906-2.677zM61.235 51.73v-2.714a5.321 5.321 0 0 1 2.6-4.592l5.11-3.068 5.931 10.374zm15.011-1.2l-4.906-8.588 4.647 2.535a.893.893 0 0 0 1.059-.153l.039-.039 1 1.337zm1.457 1.2l2.009-5.358h.548l2.009 5.358zm4.184-6.107l1-1.337.039.039a.893.893 0 0 0 1.059.153l4.647-2.535-4.906 8.586zM85.1 51.73l5.928-10.375 5.11 3.068a5.322 5.322 0 0 1 2.6 4.592v2.715z" data-name="Path 126" transform="translate(-59.449)"/>
        </g>
    </g>
</svg>
