<svg xmlns="http://www.w3.org/2000/svg" width="51.04" height="46.101" viewBox="0 0 51.04 46.101">
    <defs>
        <style>
            .cls-1{fill:#fff}
        </style>
    </defs>
    <g id="video" transform="translate(-8 -31.995)">
        <path id="Path_118" d="M55.747 36.112h-9.878v-3.293a.823.823 0 0 0-1.232-.715l-4.531 2.589v-1.874a.823.823 0 0 0-.823-.819H21.995a.823.823 0 0 0-.823.823v3.293h-9.879A3.3 3.3 0 0 0 8 39.4v27.99a3.3 3.3 0 0 0 3.293 3.293h16.969l-1.1 3.293h-2.7a.823.823 0 0 0-.823.823v2.47a.823.823 0 0 0 .823.823h18.114a.823.823 0 0 0 .823-.823V74.8a.823.823 0 0 0-.823-.823h-2.7l-1.1-3.293h16.971a3.3 3.3 0 0 0 3.293-3.293V39.4a3.3 3.3 0 0 0-3.293-3.288zm-15.641.477l4.116-2.351v10.334l-4.116-2.352zm-17.288-2.947H38.46v11.526H22.818zm18.934 41.985v.823H25.288v-.823zM28.9 73.981l1.1-3.293h7.045l1.1 3.293zm28.494-6.586a1.649 1.649 0 0 1-1.646 1.646H11.293a1.649 1.649 0 0 1-1.646-1.646v-1.647h47.747zm0-3.293H9.646V39.4a1.649 1.649 0 0 1 1.646-1.646h9.879v8.232a.823.823 0 0 0 .823.823h17.289a.823.823 0 0 0 .823-.823v-1.869l4.531 2.589a.823.823 0 0 0 1.232-.715v-8.232h9.879a1.649 1.649 0 0 1 1.646 1.641z" class="cls-1" data-name="Path 118"/>
        <path id="Path_119" d="M45.763 368h-4.94a.823.823 0 1 0 0 1.646h4.939a.823.823 0 1 0 0-1.646z" class="cls-1" data-name="Path 119" transform="translate(-28.707 -301.428)"/>
        <path id="Path_120" d="M113.646 368h-.823a.823.823 0 1 0 0 1.646h.823a.823.823 0 1 0 0-1.646z" class="cls-1" data-name="Path 120" transform="translate(-93.298 -301.428)"/>
        <path id="Path_121" d="M131.293 204.348h19.757a3.3 3.3 0 0 0 3.293-3.293v-5.763A3.3 3.3 0 0 0 151.05 192h-19.757a3.3 3.3 0 0 0-3.293 3.293v5.763a3.3 3.3 0 0 0 3.293 3.293zm-1.646-9.056a1.648 1.648 0 0 1 1.646-1.646h19.757a1.648 1.648 0 0 1 1.646 1.646v5.763a1.648 1.648 0 0 1-1.646 1.646h-19.757a1.648 1.648 0 0 1-1.646-1.646z" class="cls-1" data-name="Path 121" transform="translate(-107.652 -143.539)"/>
        <path id="Path_122" d="M160.823 223.409h3.293a.823.823 0 0 0 0-1.646h-2.47v-4.939a.823.823 0 1 0-1.646 0v5.763a.823.823 0 0 0 .823.822z" class="cls-1" data-name="Path 122" transform="translate(-136.359 -165.07)"/>
        <path id="Path_123" d="M216.823 223.409a.823.823 0 0 0 .823-.823v-5.763a.823.823 0 1 0-1.646 0v5.763a.823.823 0 0 0 .823.823z" class="cls-1" data-name="Path 123" transform="translate(-186.596 -165.07)"/>
        <path id="Path_124" d="M304.823 223.409h3.293a.823.823 0 0 0 0-1.646h-2.47v-1.646h.823a.823.823 0 0 0 0-1.646h-.823v-.823h2.47a.823.823 0 1 0 0-1.646h-3.293a.823.823 0 0 0-.823.823v5.763a.823.823 0 0 0 .823.821z" class="cls-1" data-name="Path 124" transform="translate(-265.54 -165.07)"/>
        <path id="Path_125" d="M249.676 222.81a.823.823 0 0 0 1.583 0l1.646-5.763a.823.823 0 0 0-1.583-.453l-.855 2.992-.855-2.992a.823.823 0 0 0-1.583.453z" class="cls-1" data-name="Path 125" transform="translate(-215.301 -165.068)"/>
    </g>
</svg>
