<?xml version="1.0" encoding="iso-8859-1"?>
<!-- Generator: Adobe Illustrator 19.0.0, SVG Export Plug-In . SVG Version: 6.00 Build 0)  -->
<svg version="1.1" id="Layer_1" xmlns="http://www.w3.org/2000/svg" xmlns:xlink="http://www.w3.org/1999/xlink" x="0px" y="0px"
	 viewBox="0 0 495 495" style="enable-background:new 0 0 495 495;" xml:space="preserve">
<g>
	<polygon style="fill:#2488FF;" points="247.5,0 247.5,40 455,40 455,455 247.5,455 247.5,495 495,495 495,0 	"/>
	<polygon style="fill:#57A4FF;" points="40,455 40,40 247.5,40 247.5,0 0,0 0,495 247.5,495 247.5,455 	"/>
	<path style="fill:#57A4FF;" d="M95.564,241.876l72.583,27.089l28.094,90.351c1.798,5.784,8.874,7.923,13.569,4.083l40.46-32.981
		c4.24-3.458,10.282-3.628,14.712-0.412l72.975,52.981c5.023,3.65,12.142,0.899,13.401-5.172l53.458-257.136
		c1.375-6.632-5.139-12.164-11.454-9.721L95.48,225.873C88.128,228.706,88.191,239.114,95.564,241.876z M191.713,254.546
		l141.854-87.367c2.548-1.565,5.172,1.882,2.981,3.913L219.479,279.913c-4.116,3.829-6.77,8.957-7.522,14.522l-3.986,29.553
		c-0.531,3.945-6.071,4.335-7.162,0.517l-15.337-53.891C183.717,264.468,186.276,257.901,191.713,254.546z"/>
</g>
<g>
</g>
<g>
</g>
<g>
</g>
<g>
</g>
<g>
</g>
<g>
</g>
<g>
</g>
<g>
</g>
<g>
</g>
<g>
</g>
<g>
</g>
<g>
</g>
<g>
</g>
<g>
</g>
<g>
</g>
</svg>
