<?xml version="1.0" encoding="iso-8859-1"?>
<!-- Generator: Adobe Illustrator 19.0.0, SVG Export Plug-In . SVG Version: 6.00 Build 0)  -->
<svg version="1.1" id="Layer_1" xmlns="http://www.w3.org/2000/svg" xmlns:xlink="http://www.w3.org/1999/xlink" x="0px" y="0px"
	 viewBox="0 0 495 495" style="enable-background:new 0 0 495 495;" xml:space="preserve">
<g>
	<polygon style="fill:#85BB04;" points="247.5,0 247.5,40 455,40 455,455 247.5,455 247.5,495 495,495 495,0 	"/>
	<polygon style="fill:#9CDD05;" points="40,455 40,40 247.5,40 247.5,0 0,0 0,495 247.5,495 247.5,455 	"/>
	<path style="fill:#9CDD05;" d="M142.626,328.189l-19.678,56.667l78.799-30.307c14.48,3.477,29.837,5.367,45.747,5.367
		C334.478,359.916,405,304,405,235.036c0-68.977-70.522-124.893-157.507-124.893C160.511,110.144,90,166.06,90,235.036
		C90,272.065,110.336,305.317,142.626,328.189z M247.493,175.737c52.137,0,94.409,26.549,94.409,59.299
		c0,32.739-42.272,59.287-94.409,59.287c-52.134,0-94.407-26.547-94.407-59.287C153.087,202.286,195.359,175.737,247.493,175.737z"
		/>
</g>
<g>
</g>
<g>
</g>
<g>
</g>
<g>
</g>
<g>
</g>
<g>
</g>
<g>
</g>
<g>
</g>
<g>
</g>
<g>
</g>
<g>
</g>
<g>
</g>
<g>
</g>
<g>
</g>
<g>
</g>
</svg>
