<svg xmlns="http://www.w3.org/2000/svg" width="32" height="32" viewBox="0 0 32 32">
    <defs>
        <clipPath id="clip-path">
            <path id="Rectangle_387" fill="#a35aff" stroke="#707070" d="M0 0H32V32H0z" data-name="Rectangle 387" transform="translate(1271 680)"/>
        </clipPath>
        <style>
            .cls-3{fill:#a35aff}
        </style>
    </defs>
    <g id="Mask_Group_78" clip-path="url(#clip-path)" data-name="Mask Group 78" transform="translate(-1271 -680)">
        <g id="calendar" transform="translate(1271 680)">
            <path id="Path_974" d="M7.25 10.375a.625.625 0 1 0 .625.625.625.625 0 0 0-.625-.625zm0 0" class="cls-3" data-name="Path 974"/>
            <path id="Path_975" d="M1.875 32h28.25A1.877 1.877 0 0 0 32 30.125V4.375A1.877 1.877 0 0 0 30.125 2.5h-1v-.625a1.875 1.875 0 0 0-3.75 0V2.5h-3.75v-.625a1.875 1.875 0 0 0-3.75 0V2.5h-3.75v-.625a1.875 1.875 0 0 0-3.75 0V2.5h-3.75v-.625a1.875 1.875 0 0 0-3.75 0V2.5h-1A1.877 1.877 0 0 0 0 4.375v25.75A1.877 1.877 0 0 0 1.875 32zm28.25-1.25H1.875a.626.626 0 0 1-.625-.625v-21h29.5v21a.626.626 0 0 1-.625.625zm-3.5-28.875a.625.625 0 0 1 1.25 0V2.5h-1.25zm-7.5 0a.625.625 0 0 1 1.25 0V2.5h-1.25zm-7.5 0a.625.625 0 0 1 1.25 0V2.5h-1.25zm-7.5 0a.625.625 0 0 1 1.25 0V2.5h-1.25zM1.875 3.75h1v.813A1.877 1.877 0 0 0 4.75 6.438a.625.625 0 0 0 0-1.25.626.626 0 0 1-.625-.625V3.75h6.25v.813a1.877 1.877 0 0 0 1.875 1.875.625.625 0 0 0 0-1.25.626.626 0 0 1-.625-.625V3.75h6.25v.813a1.877 1.877 0 0 0 1.875 1.875.625.625 0 0 0 0-1.25.626.626 0 0 1-.625-.625V3.75h6.25v.813a1.877 1.877 0 0 0 1.875 1.875.625.625 0 0 0 0-1.25.626.626 0 0 1-.625-.625V3.75h3.5a.626.626 0 0 1 .625.625v3.5H1.25v-3.5a.626.626 0 0 1 .625-.625zm0 0" class="cls-3" data-name="Path 975"/>
            <path id="Path_976" d="M24.75 10.375h-15a.625.625 0 0 0 0 1.25h15a.625.625 0 0 0 0-1.25zm0 0" class="cls-3" data-name="Path 976"/>
            <path id="Path_977" d="M16 14.125A6.875 6.875 0 1 0 22.875 21 6.883 6.883 0 0 0 16 14.125zm0 12.5A5.625 5.625 0 1 1 21.625 21 5.631 5.631 0 0 1 16 26.625zm0 0" class="cls-3" data-name="Path 977"/>
            <path id="Path_978" d="M18.058 19.308l-2.683 2.683-1.433-1.433a.625.625 0 0 0-.884.884l1.875 1.875a.625.625 0 0 0 .884 0l3.125-3.125a.625.625 0 0 0-.884-.884zm0 0" class="cls-3" data-name="Path 978"/>
        </g>
    </g>
</svg>
