<svg xmlns="http://www.w3.org/2000/svg" width="32" height="32" viewBox="0 0 32 32">
    <defs>
        <clipPath id="clip-path">
            <path id="Rectangle_384" fill="#e6a16f" stroke="#707070" d="M0 0H32V32H0z" data-name="Rectangle 384" transform="translate(695 680)"/>
        </clipPath>
        <style>
            .cls-3{fill:#e6a16f}
        </style>
    </defs>
    <g id="Mask_Group_75" clip-path="url(#clip-path)" data-name="Mask Group 75" transform="translate(-695 -680)">
        <g id="XMLID_1366_" transform="translate(695 680)">
            <g id="XMLID_267_">
                <path id="XMLID_1361_" d="M30.5 19.969v-8.475a.625.625 0 0 0-.339-.551l-14.625-7.5a.625.625 0 0 0-.57 0L10.97 5.492a.625.625 0 1 0 .57 1.108l3.71-1.9 12.037 6.173h-10.27a1.875 1.875 0 1 0 0 1.25h10.269L15.25 18.3 1.995 11.5l4.54-2.328a.625.625 0 0 0-.57-1.112L.34 10.944a.625.625 0 0 0 0 1.112l5.092 2.612v5.375a1.867 1.867 0 0 0 1.019 1.668l7.943 4.073a1.879 1.879 0 0 0 1.711 0l7.943-4.073a1.867 1.867 0 0 0 1.019-1.668v-5.375l4.182-2.145v7.446A2.129 2.129 0 0 0 27.75 22v6a.625.625 0 0 0 .625.625h3A.625.625 0 0 0 32 28v-6a2.129 2.129 0 0 0-1.5-2.031zm-15.25-7.844a.625.625 0 1 1 .625-.625.626.626 0 0 1-.625.625zm8.568 7.918a.622.622 0 0 1-.34.556l-7.943 4.073a.626.626 0 0 1-.57 0L7.022 20.6a.622.622 0 0 1-.34-.556v-4.735l8.283 4.247a.625.625 0 0 0 .57 0l8.283-4.247v4.734zm6.932 7.332H29V22a.875.875 0 1 1 1.75 0z" class="cls-3"/>
                <path id="XMLID_1595_" d="M8.752 7.957a.624.624 0 1 0-.442-.183.629.629 0 0 0 .442.183z" class="cls-3"/>
            </g>
        </g>
    </g>
</svg>
