<svg xmlns="http://www.w3.org/2000/svg" width="32" height="32" viewBox="0 0 32 32">
    <defs>
        <clipPath id="clip-path">
            <path id="Rectangle_385" fill="#00a4da" stroke="#707070" d="M0 0H32V32H0z" data-name="Rectangle 385" transform="translate(887 680)"/>
        </clipPath>
        <style>
            .cls-3{fill:#00a4da}
        </style>
    </defs>
    <g id="Mask_Group_76" clip-path="url(#clip-path)" data-name="Mask Group 76" transform="translate(-887 -680)">
        <g id="video_1_" data-name="video (1)" transform="translate(887 680)">
            <path id="Path_965" d="M18.5 16a2.5 2.5 0 1 0-2.5 2.5 2.5 2.5 0 0 0 2.5-2.5zM16 17.25A1.25 1.25 0 1 1 17.25 16 1.251 1.251 0 0 1 16 17.25z" class="cls-3" data-name="Path 965"/>
            <path id="Path_966" d="M4.375 29.75h8.813a.625.625 0 0 0 0-1.25H4.375A3.13 3.13 0 0 1 1.313 26h29.374a3.13 3.13 0 0 1-3.062 2.5h-8.812a.625.625 0 0 0 0 1.25h8.813A4.38 4.38 0 0 0 32 25.375a.625.625 0 0 0-.625-.625h-2.187V8.5a.625.625 0 0 0-.625-.625h-4.438v-5a.625.625 0 0 0-.972-.52L18.5 5.457V2.875a.625.625 0 0 0-.625-.625H8.5a.625.625 0 0 0-.625.625v5H3.438a.625.625 0 0 0-.625.625v16.25H.625a.625.625 0 0 0-.625.625 4.38 4.38 0 0 0 4.375 4.375zm14.75-5h-6.25v-1.875a3.125 3.125 0 0 1 6.25 0zm3.75-20.707v5.164L19 6.625zM9.125 3.5h8.125v6.25H9.125zM4.063 9.125h3.812v1.25A.625.625 0 0 0 8.5 11h9.375a.625.625 0 0 0 .625-.625V7.793l4.653 3.1a.625.625 0 0 0 .972-.52V9.125h3.813V24.75h-7.563v-1.875a4.375 4.375 0 0 0-8.75 0v1.875H4.063z" class="cls-3" data-name="Path 966"/>
            <circle id="Ellipse_120" cx=".625" cy=".625" r=".625" class="cls-3" data-name="Ellipse 120" transform="translate(15.375 28.5)"/>
        </g>
    </g>
</svg>
